<svg xmlns="http://www.w3.org/2000/svg" xmlns:xlink="http://www.w3.org/1999/xlink" width="1080" zoomAndPan="magnify" viewBox="0 0 810 1012.49997" height="1350" preserveAspectRatio="xMidYMid meet" version="1.0"><path fill="#a2a8b2" d="M 235.042969 193.703125 C 134.28125 251.3125 19.269531 375.285156 31.210938 516.414062 C 36.355469 577.210938 63.28125 620.109375 83.304688 652.007812 C 96.488281 673.007812 225.664062 872.132812 424.269531 861.515625 C 639.859375 849.996094 790.699219 599.160156 753.625 541.140625 C 738.1875 516.980469 695.75 534.976562 674.191406 506.222656 C 630.011719 447.316406 777.769531 331.246094 749.175781 244.757812 C 715.195312 141.972656 432.164062 80.996094 235.042969 193.703125 " fill-opacity="1" fill-rule="nonzero"/><path fill="#1a1c21" d="M 305.871094 782.378906 L 202.207031 782.378906 C 198.25 782.378906 195.039062 779.171875 195.039062 775.210938 L 195.039062 188.125 C 195.039062 184.355469 198.09375 181.304688 201.859375 181.304688 L 305.871094 181.304688 L 305.871094 782.378906 " fill-opacity="1" fill-rule="nonzero"/><path fill="#000000" d="M 583.585938 759.476562 L 273.011719 759.476562 L 273.011719 228.089844 L 583.585938 228.089844 L 583.585938 759.476562 " fill-opacity="1" fill-rule="nonzero"/><path fill="#8c52ff" d="M 598.597656 274.875 L 258.007812 274.875 L 258.007812 181.304688 L 598.597656 181.304688 L 598.597656 274.875 " fill-opacity="1" fill-rule="nonzero"/><path fill="#a2a8b2" d="M 591.613281 201.671875 C 591.613281 194.28125 585.625 188.285156 578.234375 188.285156 L 278.367188 188.285156 C 270.976562 188.285156 264.984375 194.28125 264.984375 201.671875 L 264.984375 254.503906 C 264.984375 261.894531 270.976562 267.890625 278.367188 267.890625 L 578.234375 267.890625 C 585.625 267.890625 591.613281 261.894531 591.613281 254.503906 L 591.613281 201.671875 " fill-opacity="1" fill-rule="nonzero"/><path fill="#ffffff" d="M 311.941406 228.089844 C 311.941406 232.671875 308.226562 236.390625 303.644531 236.390625 C 299.058594 236.390625 295.34375 232.671875 295.34375 228.089844 C 295.34375 223.503906 299.058594 219.785156 303.644531 219.785156 C 308.226562 219.785156 311.941406 223.503906 311.941406 228.089844 " fill-opacity="1" fill-rule="nonzero"/><path fill="#ffffff" d="M 338.464844 228.089844 C 338.464844 232.671875 334.746094 236.390625 330.164062 236.390625 C 325.582031 236.390625 321.867188 232.671875 321.867188 228.089844 C 321.867188 223.503906 325.582031 219.785156 330.164062 219.785156 C 334.746094 219.785156 338.464844 223.503906 338.464844 228.089844 " fill-opacity="1" fill-rule="nonzero"/><path fill="#ffffff" d="M 364.984375 228.089844 C 364.984375 232.671875 361.269531 236.390625 356.683594 236.390625 C 352.105469 236.390625 348.386719 232.671875 348.386719 228.089844 C 348.386719 223.503906 352.105469 219.785156 356.683594 219.785156 C 361.269531 219.785156 364.984375 223.503906 364.984375 228.089844 " fill-opacity="1" fill-rule="nonzero"/><path fill="#ffffff" d="M 402.355469 255.460938 L 388.746094 255.460938 L 388.746094 200.71875 L 402.355469 200.71875 L 402.355469 255.460938 " fill-opacity="1" fill-rule="nonzero"/><path fill="#ffffff" d="M 422.246094 255.460938 L 408.636719 255.460938 L 408.636719 200.71875 L 422.246094 200.71875 L 422.246094 255.460938 " fill-opacity="1" fill-rule="nonzero"/><path fill="#ffffff" d="M 442.136719 255.460938 L 428.527344 255.460938 L 428.527344 200.71875 L 442.136719 200.71875 L 442.136719 255.460938 " fill-opacity="1" fill-rule="nonzero"/><path fill="#ffffff" d="M 462.027344 255.460938 L 448.417969 255.460938 L 448.417969 200.71875 L 462.027344 200.71875 L 462.027344 255.460938 " fill-opacity="1" fill-rule="nonzero"/><path fill="#ffffff" d="M 481.917969 255.460938 L 468.308594 255.460938 L 468.308594 200.71875 L 481.917969 200.71875 L 481.917969 255.460938 " fill-opacity="1" fill-rule="nonzero"/><path fill="#ffffff" d="M 501.804688 255.460938 L 488.195312 255.460938 L 488.195312 200.71875 L 501.804688 200.71875 L 501.804688 255.460938 " fill-opacity="1" fill-rule="nonzero"/><path fill="#ffffff" d="M 521.695312 255.460938 L 508.085938 255.460938 L 508.085938 200.71875 L 521.695312 200.71875 L 521.695312 255.460938 " fill-opacity="1" fill-rule="nonzero"/><path fill="#ffffff" d="M 541.582031 255.460938 L 527.976562 255.460938 L 527.976562 200.71875 L 541.582031 200.71875 L 541.582031 255.460938 " fill-opacity="1" fill-rule="nonzero"/><path fill="#ffffff" d="M 561.472656 255.460938 L 547.863281 255.460938 L 547.863281 200.71875 L 561.472656 200.71875 L 561.472656 255.460938 " fill-opacity="1" fill-rule="nonzero"/><path fill="#8c52ff" d="M 598.597656 376.257812 L 258.007812 376.257812 L 258.007812 282.683594 L 598.597656 282.683594 L 598.597656 376.257812 " fill-opacity="1" fill-rule="nonzero"/><path fill="#a2a8b2" d="M 578.234375 289.667969 L 278.367188 289.667969 C 270.976562 289.667969 264.988281 295.660156 264.988281 303.054688 L 264.988281 355.882812 C 264.988281 363.277344 270.976562 369.269531 278.367188 369.269531 L 578.234375 369.269531 C 585.625 369.269531 591.613281 363.277344 591.613281 355.882812 L 591.613281 303.054688 C 591.613281 295.660156 585.625 289.667969 578.234375 289.667969 " fill-opacity="1" fill-rule="nonzero"/><path fill="#ffffff" d="M 311.945312 329.46875 C 311.945312 334.054688 308.226562 337.769531 303.644531 337.769531 C 299.0625 337.769531 295.347656 334.054688 295.347656 329.46875 C 295.347656 324.882812 299.0625 321.164062 303.644531 321.164062 C 308.226562 321.164062 311.945312 324.882812 311.945312 329.46875 " fill-opacity="1" fill-rule="nonzero"/><path fill="#ffffff" d="M 338.464844 329.46875 C 338.464844 334.054688 334.746094 337.769531 330.167969 337.769531 C 325.585938 337.769531 321.871094 334.054688 321.871094 329.46875 C 321.871094 324.882812 325.585938 321.164062 330.167969 321.164062 C 334.746094 321.164062 338.464844 324.882812 338.464844 329.46875 " fill-opacity="1" fill-rule="nonzero"/><path fill="#ffffff" d="M 364.988281 329.46875 C 364.988281 334.054688 361.273438 337.769531 356.6875 337.769531 C 352.109375 337.769531 348.386719 334.054688 348.386719 329.46875 C 348.386719 324.882812 352.109375 321.164062 356.6875 321.164062 C 361.273438 321.164062 364.988281 324.882812 364.988281 329.46875 " fill-opacity="1" fill-rule="nonzero"/><path fill="#ffffff" d="M 402.355469 356.84375 L 388.75 356.84375 L 388.75 302.097656 L 402.355469 302.097656 L 402.355469 356.84375 " fill-opacity="1" fill-rule="nonzero"/><path fill="#ffffff" d="M 422.246094 356.84375 L 408.636719 356.84375 L 408.636719 302.097656 L 422.246094 302.097656 L 422.246094 356.84375 " fill-opacity="1" fill-rule="nonzero"/><path fill="#ffffff" d="M 442.136719 356.84375 L 428.527344 356.84375 L 428.527344 302.097656 L 442.136719 302.097656 L 442.136719 356.84375 " fill-opacity="1" fill-rule="nonzero"/><path fill="#ffffff" d="M 462.027344 356.84375 L 448.417969 356.84375 L 448.417969 302.097656 L 462.027344 302.097656 L 462.027344 356.84375 " fill-opacity="1" fill-rule="nonzero"/><path fill="#ffffff" d="M 481.917969 356.84375 L 468.308594 356.84375 L 468.308594 302.097656 L 481.917969 302.097656 L 481.917969 356.84375 " fill-opacity="1" fill-rule="nonzero"/><path fill="#ffffff" d="M 501.804688 356.84375 L 488.199219 356.84375 L 488.199219 302.097656 L 501.804688 302.097656 L 501.804688 356.84375 " fill-opacity="1" fill-rule="nonzero"/><path fill="#ffffff" d="M 521.695312 356.84375 L 508.085938 356.84375 L 508.085938 302.097656 L 521.695312 302.097656 L 521.695312 356.84375 " fill-opacity="1" fill-rule="nonzero"/><path fill="#ffffff" d="M 541.585938 356.84375 L 527.976562 356.84375 L 527.976562 302.097656 L 541.585938 302.097656 L 541.585938 356.84375 " fill-opacity="1" fill-rule="nonzero"/><path fill="#ffffff" d="M 561.476562 356.84375 L 547.867188 356.84375 L 547.867188 302.097656 L 561.476562 302.097656 L 561.476562 356.84375 " fill-opacity="1" fill-rule="nonzero"/><path fill="#8c52ff" d="M 598.597656 477.636719 L 258.007812 477.636719 L 258.007812 384.070312 L 598.597656 384.070312 L 598.597656 477.636719 " fill-opacity="1" fill-rule="nonzero"/><path fill="#a2a8b2" d="M 578.234375 391.054688 L 278.363281 391.054688 C 270.976562 391.054688 264.984375 397.046875 264.984375 404.441406 L 264.984375 457.269531 C 264.984375 464.664062 270.976562 470.65625 278.363281 470.65625 L 578.234375 470.65625 C 585.621094 470.65625 591.609375 464.664062 591.609375 457.269531 L 591.609375 404.441406 C 591.609375 397.046875 585.621094 391.054688 578.234375 391.054688 " fill-opacity="1" fill-rule="nonzero"/><path fill="#ffffff" d="M 311.945312 430.851562 C 311.945312 435.4375 308.226562 439.15625 303.644531 439.15625 C 299.058594 439.15625 295.34375 435.4375 295.34375 430.851562 C 295.34375 426.269531 299.058594 422.550781 303.644531 422.550781 C 308.226562 422.550781 311.945312 426.269531 311.945312 430.851562 " fill-opacity="1" fill-rule="nonzero"/><path fill="#ffffff" d="M 338.464844 430.851562 C 338.464844 435.4375 334.746094 439.15625 330.164062 439.15625 C 325.585938 439.15625 321.867188 435.4375 321.867188 430.851562 C 321.867188 426.269531 325.585938 422.550781 330.164062 422.550781 C 334.746094 422.550781 338.464844 426.269531 338.464844 430.851562 " fill-opacity="1" fill-rule="nonzero"/><path fill="#ffffff" d="M 364.984375 430.851562 C 364.984375 435.4375 361.273438 439.15625 356.6875 439.15625 C 352.105469 439.15625 348.386719 435.4375 348.386719 430.851562 C 348.386719 426.269531 352.105469 422.550781 356.6875 422.550781 C 361.273438 422.550781 364.984375 426.269531 364.984375 430.851562 " fill-opacity="1" fill-rule="nonzero"/><path fill="#ffffff" d="M 402.355469 458.226562 L 388.746094 458.226562 L 388.746094 403.480469 L 402.355469 403.480469 L 402.355469 458.226562 " fill-opacity="1" fill-rule="nonzero"/><path fill="#ffffff" d="M 422.246094 458.226562 L 408.636719 458.226562 L 408.636719 403.480469 L 422.246094 403.480469 L 422.246094 458.226562 " fill-opacity="1" fill-rule="nonzero"/><path fill="#ffffff" d="M 442.136719 458.226562 L 428.527344 458.226562 L 428.527344 403.480469 L 442.136719 403.480469 L 442.136719 458.226562 " fill-opacity="1" fill-rule="nonzero"/><path fill="#ffffff" d="M 462.027344 458.226562 L 448.417969 458.226562 L 448.417969 403.480469 L 462.027344 403.480469 L 462.027344 458.226562 " fill-opacity="1" fill-rule="nonzero"/><path fill="#ffffff" d="M 481.914062 458.226562 L 468.308594 458.226562 L 468.308594 403.480469 L 481.914062 403.480469 L 481.914062 458.226562 " fill-opacity="1" fill-rule="nonzero"/><path fill="#ffffff" d="M 501.804688 458.226562 L 488.195312 458.226562 L 488.195312 403.480469 L 501.804688 403.480469 L 501.804688 458.226562 " fill-opacity="1" fill-rule="nonzero"/><path fill="#ffffff" d="M 521.695312 458.226562 L 508.085938 458.226562 L 508.085938 403.480469 L 521.695312 403.480469 L 521.695312 458.226562 " fill-opacity="1" fill-rule="nonzero"/><path fill="#ffffff" d="M 541.585938 458.226562 L 527.976562 458.226562 L 527.976562 403.480469 L 541.585938 403.480469 L 541.585938 458.226562 " fill-opacity="1" fill-rule="nonzero"/><path fill="#ffffff" d="M 561.472656 458.226562 L 547.863281 458.226562 L 547.863281 403.480469 L 561.472656 403.480469 L 561.472656 458.226562 " fill-opacity="1" fill-rule="nonzero"/><path fill="#8c52ff" d="M 598.597656 579.019531 L 258.007812 579.019531 L 258.007812 485.449219 L 598.597656 485.449219 L 598.597656 579.019531 " fill-opacity="1" fill-rule="nonzero"/><path fill="#a2a8b2" d="M 578.234375 492.433594 L 278.363281 492.433594 C 270.976562 492.433594 264.984375 498.425781 264.984375 505.828125 L 264.984375 558.648438 C 264.984375 566.050781 270.976562 572.035156 278.363281 572.035156 L 578.234375 572.035156 C 585.621094 572.035156 591.609375 566.050781 591.609375 558.648438 L 591.609375 505.828125 C 591.609375 498.425781 585.621094 492.433594 578.234375 492.433594 " fill-opacity="1" fill-rule="nonzero"/><path fill="#ffffff" d="M 311.945312 532.238281 C 311.945312 536.820312 308.226562 540.539062 303.644531 540.539062 C 299.058594 540.539062 295.34375 536.820312 295.34375 532.238281 C 295.34375 527.652344 299.058594 523.933594 303.644531 523.933594 C 308.226562 523.933594 311.945312 527.652344 311.945312 532.238281 " fill-opacity="1" fill-rule="nonzero"/><path fill="#ffffff" d="M 338.464844 532.238281 C 338.464844 536.820312 334.746094 540.539062 330.164062 540.539062 C 325.585938 540.539062 321.867188 536.820312 321.867188 532.238281 C 321.867188 527.652344 325.585938 523.933594 330.164062 523.933594 C 334.746094 523.933594 338.464844 527.652344 338.464844 532.238281 " fill-opacity="1" fill-rule="nonzero"/><path fill="#ffffff" d="M 364.984375 532.238281 C 364.984375 536.820312 361.273438 540.539062 356.6875 540.539062 C 352.105469 540.539062 348.386719 536.820312 348.386719 532.238281 C 348.386719 527.652344 352.105469 523.933594 356.6875 523.933594 C 361.273438 523.933594 364.984375 527.652344 364.984375 532.238281 " fill-opacity="1" fill-rule="nonzero"/><path fill="#ffffff" d="M 402.355469 559.609375 L 388.746094 559.609375 L 388.746094 504.863281 L 402.355469 504.863281 L 402.355469 559.609375 " fill-opacity="1" fill-rule="nonzero"/><path fill="#ffffff" d="M 422.246094 559.609375 L 408.636719 559.609375 L 408.636719 504.863281 L 422.246094 504.863281 L 422.246094 559.609375 " fill-opacity="1" fill-rule="nonzero"/><path fill="#ffffff" d="M 442.136719 559.609375 L 428.527344 559.609375 L 428.527344 504.863281 L 442.136719 504.863281 L 442.136719 559.609375 " fill-opacity="1" fill-rule="nonzero"/><path fill="#ffffff" d="M 462.027344 559.609375 L 448.417969 559.609375 L 448.417969 504.863281 L 462.027344 504.863281 L 462.027344 559.609375 " fill-opacity="1" fill-rule="nonzero"/><path fill="#ffffff" d="M 481.914062 559.609375 L 468.308594 559.609375 L 468.308594 504.863281 L 481.914062 504.863281 L 481.914062 559.609375 " fill-opacity="1" fill-rule="nonzero"/><path fill="#ffffff" d="M 501.804688 559.609375 L 488.195312 559.609375 L 488.195312 504.863281 L 501.804688 504.863281 L 501.804688 559.609375 " fill-opacity="1" fill-rule="nonzero"/><path fill="#ffffff" d="M 521.695312 559.609375 L 508.085938 559.609375 L 508.085938 504.863281 L 521.695312 504.863281 L 521.695312 559.609375 " fill-opacity="1" fill-rule="nonzero"/><path fill="#ffffff" d="M 541.585938 559.609375 L 527.976562 559.609375 L 527.976562 504.863281 L 541.585938 504.863281 L 541.585938 559.609375 " fill-opacity="1" fill-rule="nonzero"/><path fill="#ffffff" d="M 561.472656 559.609375 L 547.863281 559.609375 L 547.863281 504.863281 L 561.472656 504.863281 L 561.472656 559.609375 " fill-opacity="1" fill-rule="nonzero"/><path fill="#8c52ff" d="M 599.007812 680.386719 L 258.417969 680.386719 L 258.417969 586.820312 L 599.007812 586.820312 L 599.007812 680.386719 " fill-opacity="1" fill-rule="nonzero"/><path fill="#a2a8b2" d="M 578.644531 593.800781 L 278.78125 593.800781 C 271.390625 593.800781 265.398438 599.792969 265.398438 607.1875 L 265.398438 660.011719 C 265.398438 667.410156 271.390625 673.402344 278.78125 673.402344 L 578.644531 673.402344 C 586.035156 673.402344 592.027344 667.410156 592.027344 660.011719 L 592.027344 607.1875 C 592.027344 599.792969 586.035156 593.800781 578.644531 593.800781 " fill-opacity="1" fill-rule="nonzero"/><path fill="#ffffff" d="M 312.359375 633.601562 C 312.359375 638.183594 308.644531 641.902344 304.058594 641.902344 C 299.476562 641.902344 295.761719 638.183594 295.761719 633.601562 C 295.761719 629.015625 299.476562 625.296875 304.058594 625.296875 C 308.644531 625.296875 312.359375 629.015625 312.359375 633.601562 " fill-opacity="1" fill-rule="nonzero"/><path fill="#ffffff" d="M 338.878906 633.601562 C 338.878906 638.183594 335.164062 641.902344 330.578125 641.902344 C 326 641.902344 322.28125 638.183594 322.28125 633.601562 C 322.28125 629.015625 326 625.296875 330.578125 625.296875 C 335.164062 625.296875 338.878906 629.015625 338.878906 633.601562 " fill-opacity="1" fill-rule="nonzero"/><path fill="#ffffff" d="M 365.398438 633.601562 C 365.398438 638.183594 361.6875 641.902344 357.101562 641.902344 C 352.519531 641.902344 348.800781 638.183594 348.800781 633.601562 C 348.800781 629.015625 352.519531 625.296875 357.101562 625.296875 C 361.6875 625.296875 365.398438 629.015625 365.398438 633.601562 " fill-opacity="1" fill-rule="nonzero"/><path fill="#ffffff" d="M 402.769531 660.972656 L 389.164062 660.972656 L 389.164062 606.230469 L 402.769531 606.230469 L 402.769531 660.972656 " fill-opacity="1" fill-rule="nonzero"/><path fill="#ffffff" d="M 422.660156 660.972656 L 409.050781 660.972656 L 409.050781 606.230469 L 422.660156 606.230469 L 422.660156 660.972656 " fill-opacity="1" fill-rule="nonzero"/><path fill="#ffffff" d="M 442.550781 660.972656 L 428.941406 660.972656 L 428.941406 606.230469 L 442.550781 606.230469 L 442.550781 660.972656 " fill-opacity="1" fill-rule="nonzero"/><path fill="#ffffff" d="M 462.4375 660.972656 L 448.832031 660.972656 L 448.832031 606.230469 L 462.4375 606.230469 L 462.4375 660.972656 " fill-opacity="1" fill-rule="nonzero"/><path fill="#ffffff" d="M 482.328125 660.972656 L 468.722656 660.972656 L 468.722656 606.230469 L 482.328125 606.230469 L 482.328125 660.972656 " fill-opacity="1" fill-rule="nonzero"/><path fill="#ffffff" d="M 502.21875 660.972656 L 488.609375 660.972656 L 488.609375 606.230469 L 502.21875 606.230469 L 502.21875 660.972656 " fill-opacity="1" fill-rule="nonzero"/><path fill="#ffffff" d="M 522.109375 660.972656 L 508.5 660.972656 L 508.5 606.230469 L 522.109375 606.230469 L 522.109375 660.972656 " fill-opacity="1" fill-rule="nonzero"/><path fill="#ffffff" d="M 541.996094 660.972656 L 528.390625 660.972656 L 528.390625 606.230469 L 541.996094 606.230469 L 541.996094 660.972656 " fill-opacity="1" fill-rule="nonzero"/><path fill="#ffffff" d="M 561.886719 660.972656 L 548.277344 660.972656 L 548.277344 606.230469 L 561.886719 606.230469 L 561.886719 660.972656 " fill-opacity="1" fill-rule="nonzero"/><path fill="#8c52ff" d="M 599.007812 781.765625 L 258.417969 781.765625 L 258.417969 688.199219 L 599.007812 688.199219 L 599.007812 781.765625 " fill-opacity="1" fill-rule="nonzero"/><path fill="#a2a8b2" d="M 578.644531 695.183594 L 278.78125 695.183594 C 271.390625 695.183594 265.398438 701.179688 265.398438 708.570312 L 265.398438 761.394531 C 265.398438 768.792969 271.390625 774.785156 278.78125 774.785156 L 578.644531 774.785156 C 586.035156 774.785156 592.027344 768.792969 592.027344 761.394531 L 592.027344 708.570312 C 592.027344 701.179688 586.035156 695.183594 578.644531 695.183594 " fill-opacity="1" fill-rule="nonzero"/><path fill="#ffffff" d="M 312.359375 734.984375 C 312.359375 739.566406 308.644531 743.285156 304.058594 743.285156 C 299.476562 743.285156 295.761719 739.566406 295.761719 734.984375 C 295.761719 730.394531 299.476562 726.679688 304.058594 726.679688 C 308.644531 726.679688 312.359375 730.394531 312.359375 734.984375 " fill-opacity="1" fill-rule="nonzero"/><path fill="#ffffff" d="M 338.878906 734.984375 C 338.878906 739.566406 335.164062 743.285156 330.578125 743.285156 C 326 743.285156 322.28125 739.566406 322.28125 734.984375 C 322.28125 730.394531 326 726.679688 330.578125 726.679688 C 335.164062 726.679688 338.878906 730.394531 338.878906 734.984375 " fill-opacity="1" fill-rule="nonzero"/><path fill="#ffffff" d="M 365.398438 734.984375 C 365.398438 739.566406 361.6875 743.285156 357.101562 743.285156 C 352.519531 743.285156 348.800781 739.566406 348.800781 734.984375 C 348.800781 730.394531 352.519531 726.679688 357.101562 726.679688 C 361.6875 726.679688 365.398438 730.394531 365.398438 734.984375 " fill-opacity="1" fill-rule="nonzero"/><path fill="#ffffff" d="M 402.769531 762.355469 L 389.164062 762.355469 L 389.164062 707.613281 L 402.769531 707.613281 L 402.769531 762.355469 " fill-opacity="1" fill-rule="nonzero"/><path fill="#ffffff" d="M 422.660156 762.355469 L 409.050781 762.355469 L 409.050781 707.613281 L 422.660156 707.613281 L 422.660156 762.355469 " fill-opacity="1" fill-rule="nonzero"/><path fill="#ffffff" d="M 442.550781 762.355469 L 428.941406 762.355469 L 428.941406 707.613281 L 442.550781 707.613281 L 442.550781 762.355469 " fill-opacity="1" fill-rule="nonzero"/><path fill="#ffffff" d="M 462.4375 762.355469 L 448.832031 762.355469 L 448.832031 707.613281 L 462.4375 707.613281 L 462.4375 762.355469 " fill-opacity="1" fill-rule="nonzero"/><path fill="#ffffff" d="M 482.328125 762.355469 L 468.722656 762.355469 L 468.722656 707.613281 L 482.328125 707.613281 L 482.328125 762.355469 " fill-opacity="1" fill-rule="nonzero"/><path fill="#ffffff" d="M 502.21875 762.355469 L 488.609375 762.355469 L 488.609375 707.613281 L 502.21875 707.613281 L 502.21875 762.355469 " fill-opacity="1" fill-rule="nonzero"/><path fill="#ffffff" d="M 522.109375 762.355469 L 508.5 762.355469 L 508.5 707.613281 L 522.109375 707.613281 L 522.109375 762.355469 " fill-opacity="1" fill-rule="nonzero"/><path fill="#ffffff" d="M 541.996094 762.355469 L 528.390625 762.355469 L 528.390625 707.613281 L 541.996094 707.613281 L 541.996094 762.355469 " fill-opacity="1" fill-rule="nonzero"/><path fill="#ffffff" d="M 561.886719 762.355469 L 548.277344 762.355469 L 548.277344 707.613281 L 561.886719 707.613281 L 561.886719 762.355469 " fill-opacity="1" fill-rule="nonzero"/><path fill="#000000" d="M 466.886719 827.941406 L 460.867188 827.941406 C 460.136719 827.941406 459.546875 827.351562 459.546875 826.621094 C 459.546875 825.894531 460.136719 825.300781 460.867188 825.300781 L 466.886719 825.300781 C 467.613281 825.300781 468.207031 825.894531 468.207031 826.621094 C 468.207031 827.351562 467.613281 827.941406 466.886719 827.941406 " fill-opacity="1" fill-rule="nonzero"/><path fill="#000000" d="M 450.109375 827.941406 L 417.800781 827.941406 C 417.070312 827.941406 416.480469 827.351562 416.480469 826.621094 C 416.480469 825.894531 417.070312 825.300781 417.800781 825.300781 L 450.109375 825.300781 C 450.835938 825.300781 451.429688 825.894531 451.429688 826.621094 C 451.429688 827.351562 450.835938 827.941406 450.109375 827.941406 " fill-opacity="1" fill-rule="nonzero"/><path fill="#000000" d="M 402.773438 827.941406 L 200.984375 827.941406 C 193.765625 827.941406 187.894531 822.066406 187.894531 814.847656 L 187.894531 723.390625 C 187.894531 717.628906 183.207031 712.9375 177.449219 712.9375 L 48.054688 712.9375 C 40.835938 712.9375 34.964844 707.066406 34.964844 699.847656 L 34.964844 649.457031 C 34.964844 648.726562 35.558594 648.136719 36.285156 648.136719 C 37.015625 648.136719 37.605469 648.726562 37.605469 649.457031 L 37.605469 699.847656 C 37.605469 705.609375 42.292969 710.300781 48.054688 710.300781 L 177.449219 710.300781 C 184.664062 710.300781 190.535156 716.171875 190.535156 723.390625 L 190.535156 814.847656 C 190.535156 820.613281 195.222656 825.300781 200.984375 825.300781 L 402.773438 825.300781 C 403.507812 825.300781 404.097656 825.894531 404.097656 826.621094 C 404.097656 827.351562 403.507812 827.941406 402.773438 827.941406 " fill-opacity="1" fill-rule="nonzero"/><path fill="#000000" d="M 36.285156 630.074219 C 35.558594 630.074219 34.964844 629.480469 34.964844 628.75 L 34.964844 618.324219 C 34.964844 617.59375 35.558594 617.003906 36.285156 617.003906 C 37.015625 617.003906 37.605469 617.59375 37.605469 618.324219 L 37.605469 628.75 C 37.605469 629.480469 37.015625 630.074219 36.285156 630.074219 " fill-opacity="1" fill-rule="nonzero"/><path fill="#000000" d="M 36.285156 608.285156 C 35.558594 608.285156 34.964844 607.695312 34.964844 606.96875 L 34.964844 584.988281 C 34.964844 584.257812 35.558594 583.667969 36.285156 583.667969 C 37.015625 583.667969 37.605469 584.257812 37.605469 584.988281 L 37.605469 606.96875 C 37.605469 607.695312 37.015625 608.285156 36.285156 608.285156 " fill-opacity="1" fill-rule="nonzero"/><path fill="#000000" d="M 574.671875 672.359375 L 441.730469 672.359375 C 434.644531 672.359375 428.878906 666.480469 428.878906 659.253906 L 428.878906 643.886719 C 428.878906 638.117188 424.296875 633.417969 418.664062 633.417969 L 389.882812 633.417969 C 389.15625 633.417969 388.566406 632.828125 388.566406 632.097656 C 388.566406 631.371094 389.15625 630.78125 389.882812 630.78125 L 418.664062 630.78125 C 425.753906 630.78125 431.519531 636.660156 431.519531 643.886719 L 431.519531 659.253906 C 431.519531 665.023438 436.101562 669.714844 441.730469 669.714844 L 574.671875 669.714844 C 580.300781 669.714844 584.882812 665.023438 584.882812 659.253906 C 584.882812 658.523438 585.476562 657.933594 586.207031 657.933594 C 586.933594 657.933594 587.523438 658.523438 587.523438 659.253906 C 587.523438 666.480469 581.753906 672.359375 574.671875 672.359375 " fill-opacity="1" fill-rule="nonzero"/><path fill="#ffffff" d="M 639.527344 698.148438 C 628.605469 678.613281 629.964844 669.457031 633.082031 664.707031 C 638.625 656.246094 651.035156 659.8125 656.535156 650.625 C 662.1875 641.171875 651.941406 632.59375 655.757812 620.480469 C 660.265625 606.152344 682.632812 592.636719 696.996094 600.753906 C 709.277344 607.695312 712.511719 628.65625 705.210938 639.476562 C 697.101562 651.492188 679.234375 646.246094 674.207031 657.441406 C 669.578125 667.738281 682.304688 677.488281 678.230469 687.003906 C 675.894531 692.460938 667.734375 698.503906 639.527344 698.148438 " fill-opacity="1" fill-rule="nonzero"/><path fill="#1a1c21" d="M 637.472656 707.4375 C 637.332031 707.4375 637.183594 707.414062 637.039062 707.367188 C 636.351562 707.128906 635.984375 706.375 636.226562 705.6875 C 656.257812 647.792969 682.457031 629.082031 683.5625 628.3125 C 684.164062 627.898438 684.984375 628.042969 685.398438 628.640625 C 685.816406 629.242188 685.671875 630.0625 685.070312 630.480469 C 684.804688 630.664062 658.433594 649.574219 638.722656 706.550781 C 638.53125 707.097656 638.019531 707.4375 637.472656 707.4375 " fill-opacity="1" fill-rule="nonzero"/><path fill="#8c52ff" d="M 622.582031 691.40625 C 622.46875 673.160156 627.6875 662.050781 632.480469 655.28125 C 641.226562 642.921875 650.914062 641.652344 654.25 629.714844 C 657.402344 618.4375 650.027344 615.023438 652.5 602.324219 C 655.441406 587.203125 667.042969 586.160156 670.03125 573.707031 C 673.671875 558.550781 658.699219 550.886719 651.179688 529.609375 C 641.460938 502.085938 657.578125 489.625 653.890625 463.921875 C 647.910156 422.199219 595.222656 383.75 572.6875 394.234375 C 551.441406 404.113281 549.886719 460.816406 567.058594 502.003906 C 585.363281 545.914062 613.71875 545.28125 617.839844 581.980469 C 620.6875 607.34375 608.785156 622.210938 614.910156 661.1875 C 616.980469 674.386719 620.261719 684.875 622.582031 691.40625 " fill-opacity="1" fill-rule="nonzero"/><path fill="#1a1c21" d="M 628.171875 708.269531 C 627.667969 708.269531 627.195312 707.984375 626.96875 707.496094 C 616.027344 683.597656 620.464844 657.394531 626.089844 624.214844 C 629.050781 606.773438 632.402344 587.003906 633.699219 565.242188 C 637.3125 504.578125 586.65625 431.160156 586.148438 430.433594 C 585.730469 429.832031 585.875 429.011719 586.46875 428.59375 C 587.066406 428.175781 587.890625 428.320312 588.3125 428.914062 C 588.828125 429.65625 640.003906 503.8125 636.332031 565.394531 C 635.027344 587.304688 631.664062 607.148438 628.695312 624.660156 C 623.148438 657.386719 618.765625 683.242188 629.371094 706.398438 C 629.671875 707.0625 629.378906 707.847656 628.71875 708.148438 C 628.542969 708.230469 628.355469 708.269531 628.171875 708.269531 " fill-opacity="1" fill-rule="nonzero"/><path fill="#1a1c21" d="M 609.140625 695.855469 C 606.6875 684.246094 604.109375 667.144531 604.96875 646.519531 C 606.367188 612.898438 615.699219 598.582031 606.320312 586.019531 C 595.984375 572.164062 578.589844 581.441406 566.261719 564.964844 C 557.863281 553.726562 562.074219 544.234375 550.53125 533.664062 C 548.339844 531.644531 541.179688 525.261719 531.078125 524.484375 C 521.707031 523.75 518.398438 528.511719 506.445312 532.6875 C 484.777344 540.253906 475.125 531.78125 467.160156 539.730469 C 460.105469 546.777344 458.703125 562.375 465.429688 570.976562 C 478.09375 587.175781 511.59375 568.308594 524.167969 583.675781 C 534.902344 596.800781 516.398438 617.808594 528.144531 632.4375 C 538.730469 645.617188 559.925781 636.246094 568.609375 650.039062 C 575.253906 660.585938 565.949219 670.972656 572.109375 681.96875 C 578.527344 693.433594 596.195312 695.632812 609.140625 695.855469 " fill-opacity="1" fill-rule="nonzero"/><path fill="#ffffff" d="M 617.199219 707.773438 C 616.917969 707.773438 616.632812 707.683594 616.390625 707.492188 C 605.390625 698.984375 601.582031 684.835938 595.828125 663.417969 C 591.476562 647.238281 586.0625 627.105469 575.605469 602.445312 C 563.34375 573.539062 540.042969 561.78125 522.65625 557.007812 C 503.757812 551.816406 487.609375 553.507812 487.445312 553.523438 C 486.726562 553.59375 486.070312 553.082031 485.988281 552.359375 C 485.910156 551.632812 486.4375 550.976562 487.164062 550.898438 C 487.839844 550.824219 503.976562 549.136719 523.359375 554.460938 C 541.304688 559.390625 565.359375 571.539062 578.03125 601.414062 C 588.566406 626.242188 594.003906 646.476562 598.375 662.730469 C 603.996094 683.632812 607.707031 697.441406 618.003906 705.410156 C 618.585938 705.855469 618.691406 706.683594 618.238281 707.257812 C 617.984375 707.59375 617.59375 707.773438 617.199219 707.773438 " fill-opacity="1" fill-rule="nonzero"/><path fill="#8c52ff" d="M 576.816406 706.117188 C 578.632812 706.929688 672.0625 706.117188 672.0625 706.117188 L 660.390625 801.511719 C 660.078125 804.085938 659.523438 806.636719 658.574219 809.054688 C 653.984375 820.765625 642.621094 828.753906 629.683594 828.753906 C 615.21875 828.753906 602.667969 818.757812 599.429688 804.652344 L 576.816406 706.117188 " fill-opacity="1" fill-rule="nonzero"/><path fill="#000000" d="M 76.789062 472.921875 C 76.707031 472.921875 76.625 472.914062 76.539062 472.898438 C 75.824219 472.761719 75.355469 472.070312 75.492188 471.355469 C 78.832031 453.972656 83.847656 436.746094 90.394531 420.144531 C 100.867188 393.582031 115.113281 368.90625 132.734375 346.796875 C 133.1875 346.226562 134.019531 346.132812 134.589844 346.585938 C 135.160156 347.039062 135.253906 347.871094 134.800781 348.441406 C 117.339844 370.34375 103.226562 394.796875 92.851562 421.113281 C 86.363281 437.5625 81.394531 454.632812 78.085938 471.851562 C 77.964844 472.484375 77.410156 472.921875 76.789062 472.921875 " fill-opacity="1" fill-rule="nonzero"/><path fill="#000000" d="M 135.722656 317.636719 C 135.402344 317.636719 135.082031 317.523438 134.828125 317.285156 C 134.292969 316.792969 134.261719 315.957031 134.753906 315.421875 C 137.5625 312.386719 140.464844 309.378906 143.382812 306.472656 C 143.898438 305.957031 144.734375 305.957031 145.25 306.480469 C 145.765625 306.992188 145.761719 307.832031 145.246094 308.339844 C 142.351562 311.226562 139.472656 314.210938 136.695312 317.214844 C 136.433594 317.492188 136.078125 317.636719 135.722656 317.636719 " fill-opacity="1" fill-rule="nonzero"/><path fill="#000000" d="M 73.03125 421.929688 C 72.886719 421.929688 72.738281 421.90625 72.59375 421.859375 C 71.90625 421.617188 71.542969 420.863281 71.785156 420.171875 C 73.0625 416.539062 74.429688 412.863281 75.851562 409.253906 C 89.605469 374.371094 109.425781 342.804688 134.753906 315.421875 C 135.25 314.886719 136.085938 314.851562 136.621094 315.347656 C 137.15625 315.84375 137.1875 316.679688 136.691406 317.214844 C 111.585938 344.355469 91.941406 375.648438 78.308594 410.222656 C 76.898438 413.800781 75.539062 417.445312 74.277344 421.046875 C 74.085938 421.59375 73.574219 421.929688 73.03125 421.929688 " fill-opacity="1" fill-rule="nonzero"/><path fill="#000000" d="M 69.960938 478.46875 L 72.335938 486.078125 L 79.375 480.578125 Z M 70.957031 490.507812 L 66.078125 474.898438 L 85.402344 479.21875 L 70.957031 490.507812 " fill-opacity="1" fill-rule="nonzero"/><path fill="#000000" d="M 694.796875 213.3125 C 694.515625 213.3125 694.238281 213.226562 694.003906 213.046875 C 669.027344 194.269531 610.9375 163.007812 561.371094 159.0625 C 560.640625 159.007812 560.101562 158.367188 560.15625 157.640625 C 560.214844 156.917969 560.835938 156.371094 561.578125 156.433594 C 611.703125 160.421875 670.378906 191.980469 695.585938 210.9375 C 696.167969 211.375 696.285156 212.203125 695.851562 212.785156 C 695.59375 213.132812 695.195312 213.3125 694.796875 213.3125 " fill-opacity="1" fill-rule="nonzero"/><path fill="#000000" d="M 661.542969 178.105469 C 661.316406 178.105469 661.101562 178.046875 660.890625 177.933594 C 660.460938 177.6875 616.878906 153.382812 576.578125 150.382812 C 575.859375 150.332031 575.3125 149.699219 575.363281 148.96875 C 575.421875 148.242188 576.0625 147.691406 576.777344 147.753906 C 617.671875 150.796875 661.75 175.386719 662.191406 175.636719 C 662.824219 175.988281 663.046875 176.792969 662.691406 177.433594 C 662.449219 177.859375 662 178.105469 661.542969 178.105469 " fill-opacity="1" fill-rule="nonzero"/><path fill="#000000" d="M 675.945312 382.257812 C 675.621094 382.257812 675.289062 382.136719 675.035156 381.890625 C 674.503906 381.394531 674.488281 380.554688 674.992188 380.027344 L 679.144531 375.683594 C 679.648438 375.160156 680.488281 375.140625 681.015625 375.644531 C 681.539062 376.144531 681.558594 376.980469 681.054688 377.511719 L 676.90625 381.851562 C 676.640625 382.125 676.292969 382.257812 675.945312 382.257812 " fill-opacity="1" fill-rule="nonzero"/><path fill="#000000" d="M 661.414062 397.453125 C 661.089844 397.453125 660.757812 397.335938 660.503906 397.089844 C 659.980469 396.585938 659.957031 395.75 660.460938 395.222656 L 664.613281 390.878906 C 665.117188 390.355469 665.957031 390.335938 666.476562 390.839844 C 667.007812 391.34375 667.027344 392.183594 666.519531 392.707031 L 662.367188 397.046875 C 662.113281 397.316406 661.765625 397.453125 661.414062 397.453125 " fill-opacity="1" fill-rule="nonzero"/><path fill="#000000" d="M 665.488281 382.492188 C 665.152344 382.492188 664.816406 382.367188 664.5625 382.109375 L 660.34375 377.953125 C 659.828125 377.445312 659.820312 376.609375 660.335938 376.089844 C 660.847656 375.570312 661.679688 375.5625 662.199219 376.074219 L 666.417969 380.226562 C 666.933594 380.742188 666.941406 381.578125 666.429688 382.097656 C 666.167969 382.363281 665.832031 382.492188 665.488281 382.492188 " fill-opacity="1" fill-rule="nonzero"/><path fill="#000000" d="M 680.242188 397.042969 C 679.898438 397.042969 679.566406 396.914062 679.3125 396.664062 L 675.097656 392.507812 C 674.574219 391.992188 674.570312 391.15625 675.082031 390.636719 C 675.59375 390.117188 676.433594 390.113281 676.945312 390.628906 L 681.164062 394.78125 C 681.683594 395.292969 681.6875 396.128906 681.179688 396.648438 C 680.917969 396.910156 680.578125 397.042969 680.242188 397.042969 " fill-opacity="1" fill-rule="nonzero"/><path fill="#000000" d="M 692.988281 351.132812 C 692.453125 351.132812 691.910156 351.203125 691.375 351.34375 C 689.773438 351.773438 688.441406 352.796875 687.617188 354.230469 C 685.90625 357.191406 686.921875 360.992188 689.878906 362.699219 C 691.3125 363.523438 692.984375 363.746094 694.582031 363.316406 C 696.179688 362.890625 697.519531 361.863281 698.347656 360.433594 C 700.050781 357.472656 699.035156 353.675781 696.074219 351.96875 C 695.121094 351.414062 694.0625 351.132812 692.988281 351.132812 Z M 692.96875 366.171875 C 691.4375 366.171875 689.921875 365.773438 688.558594 364.980469 C 684.347656 362.546875 682.890625 357.132812 685.328125 352.910156 C 686.511719 350.867188 688.417969 349.402344 690.695312 348.796875 C 692.972656 348.183594 695.355469 348.5 697.398438 349.679688 C 701.617188 352.117188 703.066406 357.535156 700.632812 361.75 C 699.449219 363.796875 697.546875 365.257812 695.265625 365.867188 C 694.503906 366.074219 693.734375 366.171875 692.96875 366.171875 " fill-opacity="1" fill-rule="nonzero"/><path fill="#000000" d="M 124.148438 805.195312 C 120.085938 805.195312 116.78125 808.503906 116.78125 812.566406 C 116.78125 816.632812 120.085938 819.9375 124.148438 819.9375 C 128.210938 819.9375 131.515625 816.632812 131.515625 812.566406 C 131.515625 808.503906 128.210938 805.195312 124.148438 805.195312 Z M 124.148438 822.578125 C 118.632812 822.578125 114.140625 818.089844 114.140625 812.566406 C 114.140625 807.046875 118.632812 802.558594 124.148438 802.558594 C 129.667969 802.558594 134.15625 807.046875 134.15625 812.566406 C 134.15625 818.089844 129.667969 822.578125 124.148438 822.578125 " fill-opacity="1" fill-rule="nonzero"/><path fill="#000000" d="M 159.664062 805.957031 C 159.371094 805.957031 159.070312 805.855469 158.824219 805.652344 C 158.535156 805.414062 129.664062 781.289062 98.4375 737.617188 C 98.011719 737.023438 98.148438 736.199219 98.742188 735.773438 C 99.335938 735.347656 100.160156 735.488281 100.582031 736.082031 C 131.597656 779.453125 160.222656 803.382812 160.507812 803.617188 C 161.070312 804.085938 161.148438 804.917969 160.683594 805.476562 C 160.421875 805.792969 160.042969 805.957031 159.664062 805.957031 " fill-opacity="1" fill-rule="nonzero"/><path fill="#000000" d="M 128.199219 789.652344 C 127.882812 789.652344 127.566406 789.542969 127.3125 789.308594 C 127.113281 789.125 106.972656 770.726562 83.0625 737.621094 C 82.636719 737.027344 82.769531 736.207031 83.359375 735.777344 C 83.953125 735.347656 84.777344 735.484375 85.203125 736.074219 C 108.941406 768.933594 128.886719 787.175781 129.085938 787.355469 C 129.625 787.84375 129.667969 788.683594 129.175781 789.21875 C 128.914062 789.503906 128.558594 789.652344 128.199219 789.652344 " fill-opacity="1" fill-rule="nonzero"/><path fill="#000000" d="M 507.28125 819.59375 C 506.828125 819.59375 506.386719 819.355469 506.140625 818.941406 C 505.773438 818.308594 505.984375 817.503906 506.609375 817.132812 L 511.382812 814.335938 C 512.011719 813.964844 512.820312 814.175781 513.1875 814.804688 C 513.558594 815.433594 513.347656 816.242188 512.71875 816.609375 L 507.949219 819.410156 C 507.734375 819.53125 507.507812 819.59375 507.28125 819.59375 " fill-opacity="1" fill-rule="nonzero"/><path fill="#000000" d="M 523.976562 809.789062 C 523.523438 809.789062 523.082031 809.554688 522.832031 809.136719 C 522.46875 808.507812 522.675781 807.699219 523.300781 807.328125 L 528.074219 804.527344 C 528.703125 804.160156 529.511719 804.371094 529.882812 804.996094 C 530.246094 805.625 530.042969 806.4375 529.414062 806.804688 L 524.640625 809.605469 C 524.429688 809.730469 524.203125 809.789062 523.976562 809.789062 " fill-opacity="1" fill-rule="nonzero"/><path fill="#000000" d="M 524.414062 824.058594 C 523.964844 824.058594 523.523438 823.828125 523.28125 823.414062 L 520.433594 818.625 C 520.058594 818 520.265625 817.191406 520.890625 816.816406 C 521.519531 816.445312 522.332031 816.652344 522.703125 817.28125 L 525.546875 822.0625 C 525.921875 822.6875 525.714844 823.5 525.085938 823.871094 C 524.875 823.996094 524.644531 824.058594 524.414062 824.058594 " fill-opacity="1" fill-rule="nonzero"/><path fill="#000000" d="M 514.453125 807.308594 C 514.003906 807.308594 513.566406 807.078125 513.320312 806.660156 L 510.472656 801.875 C 510.105469 801.25 510.308594 800.4375 510.9375 800.066406 C 511.5625 799.691406 512.371094 799.902344 512.742188 800.527344 L 515.589844 805.308594 C 515.960938 805.941406 515.753906 806.75 515.128906 807.121094 C 514.921875 807.25 514.6875 807.308594 514.453125 807.308594 " fill-opacity="1" fill-rule="nonzero"/><path fill="#000000" d="M 678.722656 750.140625 C 678.355469 750.140625 678.003906 749.992188 677.738281 749.699219 C 677.25 749.15625 677.300781 748.320312 677.839844 747.835938 C 694.210938 733.1875 708.996094 715.628906 721.78125 695.640625 C 722.175781 695.027344 722.992188 694.851562 723.609375 695.242188 C 724.222656 695.632812 724.398438 696.449219 724.007812 697.066406 C 711.089844 717.25 696.148438 734.996094 679.597656 749.800781 C 679.351562 750.027344 679.035156 750.140625 678.722656 750.140625 " fill-opacity="1" fill-rule="nonzero"/><path fill="#000000" d="M 735.195312 676.503906 C 734.992188 676.503906 734.777344 676.457031 734.585938 676.351562 C 733.9375 676.015625 733.6875 675.214844 734.03125 674.570312 C 738.03125 666.964844 741.761719 659.050781 745.109375 651.0625 C 745.390625 650.390625 746.164062 650.070312 746.835938 650.351562 C 747.507812 650.636719 747.828125 651.410156 747.546875 652.082031 C 744.164062 660.144531 740.40625 668.125 736.367188 675.800781 C 736.128906 676.25 735.667969 676.503906 735.195312 676.503906 " fill-opacity="1" fill-rule="nonzero"/><path fill="#ffffff" d="M 216.972656 814.152344 C 218.703125 812.402344 228.691406 781.308594 228.691406 781.308594 L 248.429688 795.402344 L 226.792969 824.5 L 216.972656 814.152344 " fill-opacity="1" fill-rule="nonzero"/><path fill="#000000" d="M 218.605469 813.953125 L 226.667969 822.453125 L 246.570312 795.695312 L 229.394531 783.433594 C 226.464844 792.507812 220.9375 809.269531 218.605469 813.953125 Z M 226.792969 825.820312 C 226.429688 825.820312 226.085938 825.675781 225.832031 825.410156 L 216.015625 815.058594 C 215.535156 814.554688 215.535156 813.757812 216.011719 813.25 C 217.175781 811.714844 222.761719 795.460938 227.433594 780.90625 C 227.5625 780.503906 227.878906 780.191406 228.277344 780.054688 C 228.675781 779.925781 229.117188 779.992188 229.460938 780.234375 L 249.199219 794.328125 C 249.488281 794.535156 249.679688 794.847656 249.734375 795.195312 C 249.792969 795.546875 249.703125 795.90625 249.492188 796.191406 L 227.851562 825.289062 C 227.617188 825.601562 227.257812 825.796875 226.871094 825.816406 C 226.84375 825.820312 226.816406 825.820312 226.792969 825.820312 " fill-opacity="1" fill-rule="nonzero"/><path fill="#000000" d="M 252.546875 853.464844 L 239.417969 853.386719 C 230.734375 853.335938 222.65625 848.921875 217.917969 841.636719 L 204.941406 821.074219 C 201.351562 815.394531 203.359375 807.863281 209.289062 804.710938 C 214.707031 801.828125 220.382812 799.019531 221.714844 799.148438 C 224.414062 799.410156 225.503906 812.1875 225.503906 812.1875 L 237.199219 812.636719 C 237.199219 812.636719 242.980469 836.675781 248.0625 839.410156 C 251.765625 841.402344 254.351562 844.324219 256.09375 846.988281 C 257.914062 849.78125 255.878906 853.480469 252.546875 853.464844 " fill-opacity="1" fill-rule="nonzero"/><path fill="#ffffff" d="M 251.230469 849.65625 C 251.160156 849.65625 251.097656 849.652344 251.03125 849.640625 L 233.074219 846.933594 C 228.636719 846.269531 224.773438 843.675781 222.472656 839.828125 L 206.605469 813.308594 C 206.230469 812.683594 206.4375 811.871094 207.0625 811.496094 C 207.6875 811.121094 208.496094 811.324219 208.871094 811.949219 L 224.738281 838.472656 C 226.632812 841.640625 229.816406 843.773438 233.464844 844.324219 L 251.421875 847.03125 C 252.144531 847.136719 252.640625 847.808594 252.53125 848.53125 C 252.433594 849.1875 251.867188 849.65625 251.230469 849.65625 " fill-opacity="1" fill-rule="nonzero"/><path fill="#ffffff" d="M 229.0625 829.710938 C 228.480469 829.710938 227.949219 829.324219 227.789062 828.738281 C 227.597656 828.035156 228.011719 827.308594 228.714844 827.113281 L 238.71875 824.394531 C 239.421875 824.203125 240.148438 824.613281 240.339844 825.320312 C 240.53125 826.019531 240.117188 826.75 239.414062 826.941406 L 229.410156 829.660156 C 229.292969 829.695312 229.175781 829.710938 229.0625 829.710938 " fill-opacity="1" fill-rule="nonzero"/><path fill="#ffffff" d="M 234.273438 834.855469 C 233.679688 834.855469 233.136719 834.445312 232.992188 833.847656 C 232.816406 833.136719 233.25 832.421875 233.960938 832.25 L 240.667969 830.605469 C 241.375 830.433594 242.089844 830.863281 242.261719 831.578125 C 242.4375 832.285156 242.003906 833 241.292969 833.171875 L 234.585938 834.8125 C 234.480469 834.839844 234.375 834.855469 234.273438 834.855469 " fill-opacity="1" fill-rule="nonzero"/><path fill="#ffffff" d="M 284.328125 808.222656 L 307.246094 831.257812 L 319.394531 826.792969 L 298.269531 797.320312 L 284.328125 808.222656 " fill-opacity="1" fill-rule="nonzero"/><path fill="#000000" d="M 286.3125 808.34375 L 307.585938 829.726562 L 317.3125 826.152344 L 298 799.203125 Z M 307.246094 832.574219 C 306.898438 832.574219 306.5625 832.441406 306.3125 832.183594 L 283.394531 809.152344 C 283.128906 808.882812 282.988281 808.515625 283.011719 808.136719 C 283.035156 807.757812 283.21875 807.414062 283.515625 807.179688 L 297.453125 796.28125 C 297.738281 796.054688 298.101562 795.957031 298.457031 796.011719 C 298.8125 796.0625 299.132812 796.253906 299.34375 796.550781 L 320.46875 826.023438 C 320.707031 826.359375 320.78125 826.785156 320.65625 827.183594 C 320.539062 827.578125 320.238281 827.890625 319.851562 828.03125 L 307.699219 832.496094 C 307.554688 832.550781 307.398438 832.574219 307.246094 832.574219 " fill-opacity="1" fill-rule="nonzero"/><path fill="#000000" d="M 300.007812 827.652344 C 300.007812 827.652344 298.898438 837.453125 300.777344 846.113281 C 301.777344 850.730469 305.9375 853.976562 310.660156 853.976562 L 366.902344 853.976562 C 370.925781 853.976562 372.746094 848.957031 369.660156 846.371094 C 359.664062 837.988281 341.265625 825.1875 318.648438 821.429688 L 312.335938 830.265625 L 300.007812 827.652344 " fill-opacity="1" fill-rule="nonzero"/><path fill="#ffffff" d="M 364.230469 847.558594 L 305.9375 847.558594 C 305.207031 847.558594 304.617188 846.96875 304.617188 846.242188 C 304.617188 845.507812 305.207031 844.917969 305.9375 844.917969 L 364.230469 844.917969 C 364.957031 844.917969 365.546875 845.507812 365.546875 846.242188 C 365.546875 846.96875 364.957031 847.558594 364.230469 847.558594 " fill-opacity="1" fill-rule="nonzero"/><path fill="#ffffff" d="M 331.699219 837.203125 C 331.535156 837.203125 331.363281 837.164062 331.199219 837.097656 C 330.523438 836.824219 330.207031 836.050781 330.484375 835.375 L 333.570312 827.886719 C 333.847656 827.214844 334.621094 826.894531 335.292969 827.171875 C 335.964844 827.449219 336.289062 828.21875 336.007812 828.894531 L 332.921875 836.382812 C 332.714844 836.890625 332.21875 837.203125 331.699219 837.203125 " fill-opacity="1" fill-rule="nonzero"/><path fill="#ffffff" d="M 341.847656 839.167969 C 341.707031 839.167969 341.570312 839.148438 341.433594 839.101562 C 340.742188 838.871094 340.367188 838.125 340.59375 837.429688 L 342.828125 830.675781 C 343.058594 829.988281 343.800781 829.609375 344.496094 829.835938 C 345.1875 830.066406 345.5625 830.816406 345.332031 831.507812 L 343.101562 838.261719 C 342.917969 838.816406 342.402344 839.167969 341.847656 839.167969 " fill-opacity="1" fill-rule="nonzero"/><path fill="#000000" d="M 163.019531 647.007812 C 163.019531 647.007812 267.757812 634.808594 298.902344 661.785156 C 330.050781 688.757812 249.738281 804.753906 249.738281 804.753906 L 224.339844 785.90625 L 248.429688 703.925781 L 151.613281 676.417969 L 163.019531 647.007812 " fill-opacity="1" fill-rule="nonzero"/><path fill="#000000" d="M 105.375 700.398438 C 120.589844 705.226562 147.8125 711.472656 185.859375 710.953125 C 196.671875 710.804688 206.652344 716.78125 211.5625 726.414062 C 222.832031 748.53125 247.226562 788.347656 286.960938 814.152344 L 305.9375 803.921875 L 257.503906 694.835938 C 253.078125 684.878906 244.808594 677.136719 234.582031 673.386719 L 138.589844 638.167969 C 138.589844 638.167969 108.824219 629.847656 94.234375 656.429688 C 91.625 661.175781 89.855469 665.457031 88.703125 669.289062 C 84.75 682.421875 92.308594 696.246094 105.375 700.398438 " fill-opacity="1" fill-rule="nonzero"/><path fill="#ffffff" d="M 279.390625 745.453125 C 278.882812 745.453125 278.402344 745.160156 278.183594 744.667969 L 256.292969 695.375 C 252.042969 685.796875 243.960938 678.234375 234.128906 674.625 L 188.15625 657.761719 C 187.472656 657.507812 187.121094 656.75 187.375 656.0625 C 187.625 655.378906 188.382812 655.03125 189.066406 655.28125 L 235.035156 672.144531 C 245.539062 675.996094 254.167969 684.074219 258.707031 694.304688 L 280.597656 743.59375 C 280.890625 744.265625 280.589844 745.042969 279.925781 745.339844 C 279.75 745.414062 279.566406 745.453125 279.390625 745.453125 " fill-opacity="1" fill-rule="nonzero"/><path fill="#ffffff" d="M 253.835938 787.828125 C 253.488281 787.828125 253.140625 787.695312 252.882812 787.425781 C 248.46875 782.828125 244.121094 777.898438 239.976562 772.761719 C 239.515625 772.199219 239.605469 771.367188 240.171875 770.910156 C 240.738281 770.453125 241.570312 770.539062 242.027344 771.105469 C 246.128906 776.179688 250.421875 781.054688 254.785156 785.59375 C 255.292969 786.117188 255.273438 786.953125 254.75 787.460938 C 254.492188 787.707031 254.164062 787.828125 253.835938 787.828125 " fill-opacity="1" fill-rule="nonzero"/><path fill="#ffffff" d="M 241.003906 773.253906 C 240.617188 773.253906 240.234375 773.085938 239.976562 772.761719 C 237.941406 770.246094 235.90625 767.628906 233.9375 764.980469 C 233.5 764.398438 233.621094 763.570312 234.207031 763.132812 C 234.789062 762.699219 235.617188 762.816406 236.054688 763.402344 C 238.003906 766.023438 240.015625 768.617188 242.027344 771.105469 C 242.484375 771.671875 242.398438 772.503906 241.832031 772.960938 C 241.585938 773.160156 241.292969 773.253906 241.003906 773.253906 " fill-opacity="1" fill-rule="nonzero"/><path fill="#000000" d="M 146.078125 503.828125 C 146.078125 503.828125 158.554688 488.683594 171.386719 496.234375 C 178.871094 500.644531 185.316406 508.113281 195.515625 512.769531 C 199.75 514.699219 202.222656 515.140625 202.222656 515.140625 C 202.222656 515.140625 195.191406 519.382812 175.042969 520.085938 C 154.894531 520.785156 146.078125 503.828125 146.078125 503.828125 " fill-opacity="1" fill-rule="nonzero"/><path fill="#000000" d="M 181.695312 490.628906 C 171.4375 488.976562 165.199219 478.800781 163.324219 473.203125 C 162.039062 469.367188 162.691406 467.324219 163.097656 466.417969 C 164.476562 463.332031 167.988281 462.183594 169.398438 461.671875 C 182.417969 456.984375 182.882812 447.125 193.042969 446.03125 C 201.289062 445.144531 201.457031 451.578125 215.117188 452.769531 C 217.886719 453.007812 222.125 453.113281 226.410156 455.882812 C 228.457031 457.203125 231.335938 459.066406 231.742188 461.628906 C 232.152344 464.222656 230.117188 468.113281 203.300781 482.421875 C 187.96875 490.601562 185.148438 491.1875 181.695312 490.628906 " fill-opacity="1" fill-rule="nonzero"/><path fill="#ffffff" d="M 208.707031 472.738281 C 208.707031 472.738281 193.726562 467.238281 188.507812 467.542969 C 183.289062 467.851562 183.503906 481.132812 183.503906 481.132812 C 183.503906 481.132812 178.140625 475.035156 174.964844 478.964844 C 171.792969 482.894531 180.117188 487.285156 180.117188 487.285156 L 153.785156 511.425781 L 178.183594 517.765625 L 190.582031 504.253906 C 190.582031 504.253906 194.726562 509.046875 198.515625 508.058594 C 202.300781 507.074219 207.816406 497.125 207.816406 497.125 C 209.875 496.804688 211.195312 494.769531 210.65625 492.761719 L 209.691406 489.175781 C 209.105469 486.996094 209.074219 484.699219 209.609375 482.503906 C 210.316406 479.574219 210.128906 476.496094 209.0625 473.675781 L 208.707031 472.738281 " fill-opacity="1" fill-rule="nonzero"/><path fill="#000000" d="M 156.464844 510.757812 L 177.746094 516.292969 L 189.609375 503.359375 C 189.863281 503.082031 190.222656 502.945312 190.601562 502.933594 C 190.976562 502.9375 191.332031 503.105469 191.578125 503.390625 C 192.585938 504.546875 195.742188 507.414062 198.179688 506.78125 C 200.414062 506.203125 204.484375 500.410156 206.664062 496.484375 C 206.859375 496.128906 207.210938 495.882812 207.613281 495.820312 C 208.234375 495.726562 208.761719 495.382812 209.105469 494.855469 C 209.445312 494.332031 209.542969 493.707031 209.378906 493.101562 L 208.417969 489.519531 C 207.773438 487.132812 207.742188 484.59375 208.324219 482.191406 C 208.972656 479.507812 208.800781 476.722656 207.828125 474.140625 L 207.6875 473.769531 C 203.183594 472.148438 192.460938 468.636719 188.585938 468.863281 C 185.890625 469.019531 184.746094 476.265625 184.824219 481.113281 C 184.832031 481.667969 184.496094 482.167969 183.980469 482.367188 C 183.464844 482.5625 182.878906 482.421875 182.511719 482.003906 C 181.8125 481.210938 179.40625 478.964844 177.566406 478.964844 C 177.550781 478.964844 177.535156 478.964844 177.519531 478.964844 C 176.921875 478.980469 176.4375 479.242188 175.992188 479.792969 C 175.617188 480.257812 175.496094 480.695312 175.601562 481.203125 C 175.96875 483 178.945312 485.171875 180.734375 486.121094 C 181.113281 486.324219 181.371094 486.691406 181.425781 487.117188 C 181.480469 487.546875 181.324219 487.972656 181.011719 488.261719 Z M 178.183594 519.085938 C 178.074219 519.085938 177.960938 519.074219 177.851562 519.046875 L 153.453125 512.703125 C 152.984375 512.582031 152.621094 512.214844 152.503906 511.746094 C 152.386719 511.277344 152.535156 510.78125 152.894531 510.453125 L 177.921875 487.507812 C 176.15625 486.339844 173.523438 484.222656 173.011719 481.738281 C 172.75 480.457031 173.070312 479.210938 173.9375 478.136719 C 174.871094 476.980469 176.089844 476.351562 177.464844 476.324219 C 179.210938 476.257812 180.960938 477.238281 182.265625 478.21875 C 182.546875 473.898438 183.71875 466.5 188.433594 466.226562 C 193.863281 465.902344 208.542969 471.269531 209.164062 471.496094 C 209.523438 471.628906 209.808594 471.910156 209.945312 472.269531 L 210.296875 473.207031 C 211.460938 476.289062 211.664062 479.613281 210.890625 482.8125 C 210.410156 484.792969 210.4375 486.875 210.964844 488.835938 L 211.929688 492.417969 C 212.285156 493.738281 212.0625 495.152344 211.316406 496.296875 C 210.695312 497.25 209.757812 497.949219 208.683594 498.277344 C 207.246094 500.796875 202.660156 508.347656 198.847656 509.335938 C 195.546875 510.195312 192.242188 507.679688 190.617188 506.167969 L 179.15625 518.660156 C 178.902344 518.933594 178.546875 519.085938 178.183594 519.085938 " fill-opacity="1" fill-rule="nonzero"/><path fill="#000000" d="M 190.582031 505.570312 C 190.210938 505.570312 189.839844 505.417969 189.578125 505.113281 C 186.140625 501.105469 185.378906 497.234375 185.347656 497.070312 C 185.210938 496.351562 185.683594 495.664062 186.398438 495.53125 C 187.117188 495.386719 187.804688 495.863281 187.941406 496.578125 C 187.949219 496.609375 188.628906 499.953125 191.582031 503.390625 C 192.058594 503.949219 191.992188 504.78125 191.441406 505.253906 C 191.191406 505.46875 190.886719 505.570312 190.582031 505.570312 " fill-opacity="1" fill-rule="nonzero"/><path fill="#ffffff" d="M 299.769531 481.828125 C 300.292969 480.785156 302.914062 477.671875 304.101562 476.777344 L 316.683594 465.070312 C 316.683594 465.070312 318.320312 470.710938 316.339844 474.039062 C 320.199219 474.167969 323.253906 474.824219 323.253906 474.824219 C 323.253906 474.824219 329 469.757812 330.433594 468.886719 C 331.863281 468.011719 333.730469 466.625 335.65625 466.652344 C 337.589844 466.675781 339.5 468.152344 339.5 468.152344 L 328.449219 482.167969 L 308.351562 487.699219 L 304.179688 522.320312 L 295.015625 510.042969 L 299.769531 481.828125 " fill-opacity="1" fill-rule="nonzero"/><path fill="#000000" d="M 296.410156 509.707031 L 303.261719 518.890625 L 307.042969 487.542969 C 307.105469 487.007812 307.484375 486.570312 308.003906 486.425781 L 327.683594 481.011719 L 337.542969 468.507812 C 336.964844 468.226562 336.277344 467.980469 335.636719 467.972656 C 335.628906 467.972656 335.613281 467.972656 335.601562 467.972656 C 334.347656 467.972656 332.976562 468.84375 331.761719 469.609375 C 331.539062 469.75 331.328125 469.882812 331.121094 470.011719 C 330.140625 470.609375 326.398438 473.808594 324.128906 475.816406 C 323.8125 476.089844 323.382812 476.199219 322.976562 476.113281 C 322.945312 476.109375 319.980469 475.480469 316.292969 475.355469 C 315.824219 475.339844 315.402344 475.078125 315.175781 474.667969 C 314.953125 474.257812 314.964844 473.761719 315.203125 473.363281 C 316.113281 471.832031 316.089844 469.476562 315.851562 467.648438 L 305 477.746094 C 304.964844 477.777344 304.929688 477.804688 304.894531 477.832031 C 303.914062 478.566406 301.648438 481.238281 301.035156 482.269531 Z M 304.179688 523.644531 C 303.765625 523.644531 303.375 523.453125 303.117188 523.113281 L 293.957031 510.835938 C 293.742188 510.542969 293.652344 510.179688 293.714844 509.824219 L 298.46875 481.609375 C 298.492188 481.480469 298.535156 481.355469 298.589844 481.238281 C 299.1875 480.046875 301.851562 476.847656 303.25 475.765625 L 315.785156 464.105469 C 316.117188 463.796875 316.59375 463.679688 317.035156 463.804688 C 317.476562 463.921875 317.824219 464.265625 317.949219 464.707031 C 318.015625 464.921875 319.230469 469.214844 318.257812 472.824219 C 320.320312 472.976562 321.996094 473.25 322.871094 473.40625 C 324.355469 472.101562 328.460938 468.539062 329.742188 467.757812 C 329.9375 467.640625 330.140625 467.511719 330.347656 467.378906 C 331.808594 466.453125 333.597656 465.335938 335.671875 465.332031 C 337.980469 465.363281 340.078125 466.929688 340.308594 467.109375 C 340.585938 467.324219 340.765625 467.644531 340.808594 467.992188 C 340.851562 468.339844 340.753906 468.695312 340.535156 468.96875 L 329.484375 482.984375 C 329.308594 483.207031 329.070312 483.367188 328.800781 483.441406 L 309.554688 488.738281 L 305.488281 522.480469 C 305.421875 523.019531 305.042969 523.460938 304.519531 523.597656 C 304.40625 523.628906 304.292969 523.644531 304.179688 523.644531 " fill-opacity="1" fill-rule="nonzero"/><path fill="#8c52ff" d="M 197.175781 518.824219 C 197.175781 518.824219 217.632812 538.898438 256.449219 534.363281 C 295.265625 529.835938 296.410156 489.296875 296.410156 489.296875 L 309.152344 489.296875 C 309.152344 489.296875 327.984375 560.148438 260.808594 582.445312 C 193.628906 604.742188 171.761719 565.640625 171.761719 565.640625 L 197.175781 518.824219 " fill-opacity="1" fill-rule="nonzero"/><path fill="#8c52ff" d="M 143.113281 683.269531 C 143.113281 683.269531 101.816406 699.773438 78.511719 683.855469 C 49.105469 663.769531 64.445312 606.535156 74.894531 582.445312 C 84.132812 561.152344 98.296875 546.171875 119.050781 524.21875 C 124.972656 517.957031 128.5625 514.6875 134.023438 512.066406 C 155.667969 501.699219 181.917969 513.449219 194.824219 519.222656 C 204.625 523.613281 212.167969 528.488281 217.226562 532.125 C 217.226562 532.125 175.78125 583.269531 176.617188 614.320312 C 177.457031 645.363281 190.210938 644.074219 190.210938 644.074219 C 190.210938 644.074219 172.609375 672.355469 143.113281 683.269531 " fill-opacity="1" fill-rule="nonzero"/><path fill="#8c52ff" d="M 177.457031 538.242188 C 178.636719 547.480469 181.457031 559.222656 188.152344 571.273438 C 209.515625 609.734375 252.367188 619.0625 260.820312 620.734375 L 252.347656 630.175781 C 252.347656 630.175781 161.328125 645.113281 134.929688 561.921875 C 134.929688 561.921875 124.90625 530.859375 147.199219 523.183594 C 151.839844 521.585938 157.941406 520.65625 163.777344 522.929688 C 173.890625 526.871094 177.058594 536.90625 177.457031 538.242188 " fill-opacity="1" fill-rule="nonzero"/><path fill="#ffffff" d="M 251.425781 628.332031 C 252.117188 627.921875 258.472656 618.070312 265.449219 616.019531 C 272.421875 613.96875 287.601562 629.289062 287.601562 629.289062 L 251.425781 628.332031 " fill-opacity="1" fill-rule="nonzero"/><path fill="#000000" d="M 250.753906 627.199219 C 250.75 627.199219 250.75 627.199219 250.75 627.199219 C 250.75 627.199219 250.75 627.199219 250.753906 627.199219 Z M 254.167969 627.082031 L 284.234375 627.878906 C 278.34375 622.457031 269.761719 616.117188 265.820312 617.285156 C 261.121094 618.667969 256.539062 624.105469 254.167969 627.082031 Z M 287.601562 630.609375 C 287.589844 630.609375 287.582031 630.609375 287.566406 630.609375 L 251.394531 629.652344 C 250.804688 629.636719 250.296875 629.234375 250.148438 628.664062 C 250.015625 628.148438 250.207031 627.605469 250.625 627.289062 C 250.769531 627.132812 251.160156 626.632812 251.503906 626.195312 C 253.789062 623.292969 259.140625 616.496094 265.074219 614.753906 C 272.59375 612.546875 286.929688 626.738281 288.539062 628.363281 C 288.921875 628.742188 289.027344 629.320312 288.816406 629.8125 C 288.605469 630.300781 288.128906 630.609375 287.601562 630.609375 " fill-opacity="1" fill-rule="nonzero"/><path fill="#8c52ff" d="M 117.601562 525.757812 C 117.601562 525.757812 104.539062 502.296875 151.613281 499.453125 C 159.390625 498.984375 161.90625 500.039062 172.863281 506.308594 C 196.394531 519.765625 202.222656 515.140625 202.222656 515.140625 L 197.175781 531.398438 L 117.601562 525.757812 " fill-opacity="1" fill-rule="nonzero"/><path fill="#000000" d="M 123.300781 523.0625 C 123.085938 523.0625 122.871094 523.011719 122.671875 522.902344 C 122.03125 522.550781 121.792969 521.753906 122.140625 521.113281 C 122.269531 520.878906 135.199219 497.808594 162.710938 509.164062 C 163.382812 509.441406 163.703125 510.210938 163.429688 510.886719 C 163.148438 511.558594 162.378906 511.882812 161.703125 511.601562 C 136.355469 501.140625 124.933594 521.503906 124.460938 522.371094 C 124.222656 522.8125 123.769531 523.0625 123.300781 523.0625 " fill-opacity="1" fill-rule="nonzero"/><path fill="#ffffff" d="M 176.617188 615.636719 C 176.347656 615.636719 176.074219 615.554688 175.839844 615.382812 C 174.230469 614.207031 136.394531 586.25 130.738281 555.125 C 130.609375 554.40625 131.082031 553.722656 131.800781 553.589844 C 132.511719 553.460938 133.207031 553.9375 133.335938 554.652344 C 138.804688 584.75 177.011719 612.96875 177.398438 613.25 C 177.984375 613.683594 178.113281 614.507812 177.683594 615.09375 C 177.425781 615.449219 177.023438 615.636719 176.617188 615.636719 " fill-opacity="1" fill-rule="nonzero"/><path fill="#000000" d="M 192.75 582.101562 C 192.4375 582.101562 192.125 581.992188 191.875 581.769531 C 191.328125 581.28125 191.28125 580.445312 191.769531 579.902344 C 205.253906 564.8125 202.832031 543.480469 202.808594 543.269531 C 202.71875 542.546875 203.234375 541.890625 203.960938 541.796875 C 204.683594 541.707031 205.339844 542.222656 205.429688 542.949219 C 205.542969 543.867188 208.039062 565.660156 193.738281 581.660156 C 193.476562 581.953125 193.117188 582.101562 192.75 582.101562 " fill-opacity="1" fill-rule="nonzero"/><path fill="#ffffff" d="M 190.605469 577.816406 C 190.121094 577.816406 189.65625 577.546875 189.421875 577.085938 L 176.496094 551.289062 C 176.167969 550.636719 176.433594 549.84375 177.085938 549.519531 C 177.738281 549.1875 178.53125 549.453125 178.855469 550.105469 L 191.785156 575.902344 C 192.109375 576.554688 191.847656 577.34375 191.195312 577.671875 C 191.003906 577.769531 190.804688 577.816406 190.605469 577.816406 " fill-opacity="1" fill-rule="nonzero"/><path fill="#000000" d="M 377.296875 626.742188 L 300.230469 626.742188 L 357.359375 538.832031 C 359.148438 536.085938 362.253906 534.417969 365.597656 534.417969 L 428.144531 534.417969 C 432.117188 534.417969 434.527344 538.671875 432.40625 541.9375 L 377.296875 626.742188 " fill-opacity="1" fill-rule="nonzero"/><path fill="#ffffff" d="M 393.734375 565.246094 C 391.230469 569.097656 385.847656 572.222656 381.707031 572.222656 C 377.566406 572.222656 376.242188 569.097656 378.746094 565.246094 C 381.25 561.390625 386.632812 558.265625 390.773438 558.265625 C 394.914062 558.265625 396.238281 561.390625 393.734375 565.246094 " fill-opacity="1" fill-rule="nonzero"/><path fill="#000000" d="M 371.367188 634.082031 L 239.542969 634.082031 C 236.117188 634.082031 233.335938 631.304688 233.335938 627.875 L 233.335938 626.113281 L 377.574219 626.113281 L 377.574219 627.875 C 377.574219 631.304688 374.792969 634.082031 371.367188 634.082031 " fill-opacity="1" fill-rule="nonzero"/><path fill="#ffffff" d="M 373.289062 628.140625 L 307.105469 628.140625 C 306.371094 628.140625 305.78125 627.550781 305.78125 626.820312 C 305.78125 626.09375 306.371094 625.5 307.105469 625.5 L 373.289062 625.5 C 374.015625 625.5 374.605469 626.09375 374.605469 626.820312 C 374.605469 627.550781 374.015625 628.140625 373.289062 628.140625 " fill-opacity="1" fill-rule="nonzero"/><path fill="#8c52ff" d="M 356.273438 423.148438 C 343.539062 428.5625 328.832031 422.625 323.421875 409.890625 C 318.015625 397.152344 323.945312 382.4375 336.675781 377.023438 C 349.40625 371.609375 364.113281 377.550781 369.527344 390.285156 C 374.9375 403.023438 369 417.734375 356.273438 423.148438 Z M 394.699219 384.867188 L 390.894531 375.910156 L 380.4375 377.8125 C 379.1875 375.898438 377.792969 374.105469 376.273438 372.460938 L 380.632812 362.78125 L 372.859375 356.925781 L 364.753906 363.808594 C 362.738281 362.789062 360.632812 361.941406 358.476562 361.273438 L 357.414062 350.691406 L 347.753906 349.511719 L 344.179688 359.511719 C 341.941406 359.632812 339.703125 359.957031 337.46875 360.464844 L 331.265625 351.835938 L 322.308594 355.644531 L 324.210938 366.105469 C 322.296875 367.359375 320.507812 368.753906 318.863281 370.273438 L 309.1875 365.910156 L 303.339844 373.6875 L 310.210938 381.796875 C 309.195312 383.820312 308.347656 385.914062 307.679688 388.078125 L 297.105469 389.140625 L 295.921875 398.804688 L 305.917969 402.382812 C 306.039062 404.617188 306.363281 406.863281 306.871094 409.097656 L 298.246094 415.304688 L 302.050781 424.261719 L 312.507812 422.359375 C 313.761719 424.277344 315.152344 426.0625 316.675781 427.710938 L 312.3125 437.390625 L 320.085938 443.242188 L 328.191406 436.367188 C 330.214844 437.382812 332.3125 438.230469 334.472656 438.902344 L 335.535156 449.480469 L 345.191406 450.664062 L 348.765625 440.664062 C 351.003906 440.539062 353.246094 440.214844 355.476562 439.707031 L 361.6875 448.335938 L 370.636719 444.53125 L 368.734375 434.070312 C 370.652344 432.816406 372.441406 431.421875 374.082031 429.898438 L 383.761719 434.261719 L 389.613281 426.488281 L 382.734375 418.375 C 383.753906 416.359375 384.597656 414.253906 385.269531 412.09375 L 395.84375 411.03125 L 397.027344 401.367188 L 387.03125 397.792969 C 386.90625 395.554688 386.582031 393.3125 386.074219 391.078125 L 394.699219 384.867188 " fill-opacity="1" fill-rule="nonzero"/><path fill="#000000" d="M 351.835938 421.355469 L 351.84375 421.355469 Z M 342.03125 374.542969 C 338.882812 374.542969 335.738281 375.175781 332.753906 376.445312 C 320.710938 381.566406 315.082031 395.53125 320.199219 407.582031 C 322.679688 413.414062 327.277344 417.9375 333.15625 420.308594 C 339.035156 422.679688 345.480469 422.621094 351.316406 420.140625 C 363.355469 415.023438 368.988281 401.058594 363.871094 389.007812 C 361.390625 383.171875 356.789062 378.652344 350.910156 376.277344 C 348.039062 375.121094 345.035156 374.542969 342.03125 374.542969 Z M 342.039062 424.6875 C 338.699219 424.6875 335.359375 424.046875 332.167969 422.757812 C 325.636719 420.121094 320.523438 415.101562 317.769531 408.613281 C 312.082031 395.226562 318.339844 379.707031 331.722656 374.019531 C 338.203125 371.261719 345.371094 371.191406 351.902344 373.832031 C 358.433594 376.464844 363.542969 381.492188 366.300781 387.976562 C 371.988281 401.363281 365.730469 416.882812 352.347656 422.570312 C 349.03125 423.984375 345.539062 424.6875 342.039062 424.6875 Z M 332.304688 446.507812 L 339.867188 447.433594 L 343.085938 438.429688 C 343.265625 437.929688 343.722656 437.585938 344.25 437.554688 C 346.398438 437.433594 348.582031 437.121094 350.742188 436.628906 C 351.261719 436.507812 351.796875 436.710938 352.109375 437.140625 L 357.699219 444.917969 L 364.710938 441.933594 L 363 432.515625 C 362.902344 431.992188 363.128906 431.460938 363.578125 431.171875 C 365.425781 429.957031 367.167969 428.605469 368.746094 427.140625 C 369.136719 426.777344 369.703125 426.683594 370.1875 426.90625 L 378.902344 430.832031 L 383.480469 424.746094 L 377.289062 417.441406 C 376.945312 417.035156 376.878906 416.464844 377.117188 415.992188 C 378.097656 414.042969 378.921875 411.996094 379.570312 409.914062 C 379.726562 409.40625 380.171875 409.039062 380.695312 408.988281 L 390.222656 408.03125 L 391.148438 400.464844 L 382.148438 397.242188 C 381.648438 397.0625 381.304688 396.601562 381.273438 396.074219 C 381.152344 393.929688 380.84375 391.742188 380.351562 389.582031 C 380.230469 389.0625 380.433594 388.523438 380.863281 388.210938 L 388.632812 382.621094 L 385.652344 375.605469 L 376.238281 377.316406 C 375.714844 377.417969 375.1875 377.1875 374.898438 376.742188 C 373.683594 374.886719 372.324219 373.144531 370.863281 371.570312 C 370.5 371.179688 370.410156 370.613281 370.628906 370.128906 L 374.558594 361.410156 L 368.46875 356.824219 L 361.171875 363.019531 C 360.765625 363.367188 360.195312 363.433594 359.722656 363.195312 C 357.777344 362.210938 355.730469 361.390625 353.644531 360.742188 C 353.140625 360.585938 352.777344 360.136719 352.722656 359.613281 L 351.765625 350.082031 L 344.203125 349.15625 L 340.984375 358.160156 C 340.804688 358.660156 340.347656 359.003906 339.816406 359.035156 C 337.667969 359.15625 335.484375 359.46875 333.324219 359.964844 C 332.804688 360.078125 332.265625 359.875 331.960938 359.445312 L 326.367188 351.671875 L 319.359375 354.652344 L 321.070312 364.074219 C 321.164062 364.601562 320.9375 365.125 320.492188 365.417969 C 318.640625 366.632812 316.902344 367.984375 315.324219 369.449219 C 314.933594 369.8125 314.367188 369.90625 313.882812 369.683594 L 305.167969 365.753906 L 300.585938 371.84375 L 306.78125 379.148438 C 307.121094 379.554688 307.191406 380.125 306.953125 380.597656 C 305.972656 382.546875 305.144531 384.59375 304.5 386.675781 C 304.347656 387.183594 303.898438 387.546875 303.375 387.601562 L 293.847656 388.558594 L 292.921875 396.125 L 301.921875 399.34375 C 302.421875 399.523438 302.765625 399.984375 302.796875 400.515625 C 302.914062 402.660156 303.226562 404.847656 303.722656 407.011719 C 303.839844 407.53125 303.636719 408.066406 303.207031 408.375 L 295.4375 413.96875 L 298.417969 420.980469 L 307.835938 419.269531 C 308.351562 419.171875 308.882812 419.402344 309.175781 419.847656 C 310.386719 421.703125 311.746094 423.441406 313.203125 425.019531 C 313.566406 425.410156 313.660156 425.976562 313.441406 426.460938 L 309.511719 435.179688 L 315.601562 439.765625 L 322.902344 433.566406 C 323.304688 433.222656 323.875 433.15625 324.351562 433.390625 C 326.292969 434.375 328.339844 435.199219 330.425781 435.847656 C 330.929688 436.003906 331.292969 436.449219 331.347656 436.972656 Z M 340.753906 450.191406 C 340.703125 450.191406 340.644531 450.1875 340.59375 450.179688 L 330.933594 449 C 330.320312 448.925781 329.84375 448.433594 329.78125 447.820312 L 328.804688 438.101562 C 327.148438 437.546875 325.519531 436.890625 323.949219 436.140625 L 316.503906 442.460938 C 316.03125 442.859375 315.347656 442.878906 314.851562 442.507812 L 307.078125 436.652344 C 306.589844 436.28125 306.417969 435.617188 306.671875 435.054688 L 310.675781 426.164062 C 309.53125 424.867188 308.453125 423.480469 307.453125 422.019531 L 297.851562 423.773438 C 297.242188 423.882812 296.644531 423.558594 296.402344 422.988281 L 292.59375 414.027344 C 292.351562 413.460938 292.535156 412.804688 293.039062 412.441406 L 300.960938 406.738281 C 300.601562 405.003906 300.351562 403.265625 300.21875 401.542969 L 291.039062 398.253906 C 290.457031 398.046875 290.097656 397.460938 290.171875 396.855469 L 291.355469 387.1875 C 291.429688 386.578125 291.917969 386.097656 292.53125 386.035156 L 302.246094 385.058594 C 302.800781 383.402344 303.457031 381.777344 304.207031 380.199219 L 297.886719 372.75 C 297.492188 372.277344 297.46875 371.59375 297.839844 371.101562 L 303.691406 363.324219 C 304.066406 362.828125 304.730469 362.664062 305.292969 362.917969 L 314.179688 366.921875 C 315.472656 365.773438 316.863281 364.691406 318.320312 363.699219 L 316.574219 354.089844 C 316.460938 353.484375 316.785156 352.878906 317.351562 352.636719 L 326.308594 348.832031 C 326.875 348.59375 327.535156 348.773438 327.898438 349.273438 L 333.597656 357.203125 C 335.324219 356.84375 337.0625 356.59375 338.792969 356.457031 L 342.074219 347.273438 C 342.28125 346.691406 342.859375 346.339844 343.476562 346.40625 L 353.136719 347.589844 C 353.75 347.664062 354.226562 348.152344 354.289062 348.765625 L 355.265625 358.492188 C 356.921875 359.039062 358.550781 359.695312 360.121094 360.449219 L 367.566406 354.128906 C 368.039062 353.726562 368.722656 353.710938 369.214844 354.082031 L 376.988281 359.9375 C 377.480469 360.304688 377.652344 360.96875 377.394531 361.53125 L 373.390625 370.429688 C 374.539062 371.722656 375.617188 373.105469 376.613281 374.566406 L 386.214844 372.820312 C 386.820312 372.703125 387.425781 373.03125 387.667969 373.601562 L 391.472656 382.5625 C 391.71875 383.128906 391.535156 383.785156 391.03125 384.148438 L 383.109375 389.851562 C 383.464844 391.582031 383.714844 393.324219 383.851562 395.046875 L 393.03125 398.335938 C 393.613281 398.542969 393.96875 399.125 393.898438 399.738281 L 392.714844 409.398438 C 392.640625 410.011719 392.152344 410.488281 391.539062 410.554688 L 381.820312 411.527344 C 381.269531 413.1875 380.613281 414.816406 379.859375 416.390625 L 386.179688 423.839844 C 386.578125 424.308594 386.597656 424.996094 386.230469 425.488281 L 380.378906 433.265625 C 380.003906 433.757812 379.34375 433.929688 378.777344 433.675781 L 369.890625 429.667969 C 368.59375 430.8125 367.207031 431.898438 365.75 432.890625 L 367.496094 442.5 C 367.609375 443.105469 367.285156 443.710938 366.71875 443.949219 L 357.761719 447.757812 C 357.195312 448 356.535156 447.8125 356.171875 447.316406 L 350.472656 439.386719 C 348.742188 439.746094 347.003906 439.996094 345.28125 440.128906 L 341.996094 449.3125 C 341.808594 449.84375 341.308594 450.191406 340.753906 450.191406 " fill-opacity="1" fill-rule="nonzero"/><path fill="#8c52ff" d="M 572.746094 214.234375 C 566.863281 216.746094 560.054688 213.996094 557.550781 208.101562 C 555.046875 202.207031 557.792969 195.398438 563.683594 192.894531 C 569.578125 190.390625 576.375 193.136719 578.878906 199.027344 C 581.382812 204.921875 578.640625 211.730469 572.746094 214.234375 Z M 590.53125 196.523438 L 588.765625 192.378906 L 583.933594 193.261719 C 583.351562 192.371094 582.710938 191.546875 582.003906 190.785156 L 584.023438 186.300781 L 580.421875 183.597656 L 576.675781 186.777344 C 575.742188 186.308594 574.769531 185.917969 573.769531 185.609375 L 573.277344 180.707031 L 568.8125 180.164062 L 567.15625 184.792969 C 566.121094 184.847656 565.082031 184.996094 564.046875 185.234375 L 561.179688 181.238281 L 557.035156 183.003906 L 557.914062 187.839844 C 557.03125 188.421875 556.199219 189.066406 555.441406 189.769531 L 550.960938 187.75 L 548.257812 191.351562 L 551.4375 195.105469 C 550.964844 196.039062 550.578125 197.007812 550.265625 198.007812 L 545.375 198.5 L 544.824219 202.972656 L 549.453125 204.628906 C 549.507812 205.660156 549.65625 206.703125 549.890625 207.738281 L 545.898438 210.605469 L 547.660156 214.753906 L 552.5 213.871094 C 553.082031 214.761719 553.726562 215.585938 554.429688 216.347656 L 552.410156 220.828125 L 556.003906 223.539062 L 559.753906 220.351562 C 560.691406 220.824219 561.664062 221.210938 562.664062 221.527344 L 563.152344 226.421875 L 567.621094 226.96875 L 569.277344 222.34375 C 570.3125 222.28125 571.351562 222.132812 572.378906 221.898438 L 575.253906 225.894531 L 579.398438 224.128906 L 578.519531 219.289062 C 579.402344 218.710938 580.230469 218.0625 580.988281 217.359375 L 585.46875 219.378906 L 588.175781 215.78125 L 584.992188 212.03125 C 585.460938 211.09375 585.859375 210.121094 586.164062 209.121094 L 591.0625 208.632812 L 591.605469 204.15625 L 586.980469 202.503906 C 586.925781 201.46875 586.773438 200.429688 586.535156 199.398438 L 590.53125 196.523438 " fill-opacity="1" fill-rule="nonzero"/><path fill="#000000" d="M 566.15625 192.457031 C 564.792969 192.457031 563.4375 192.734375 562.140625 193.285156 C 556.929688 195.5 554.488281 201.546875 556.710938 206.757812 C 557.78125 209.285156 559.773438 211.246094 562.3125 212.269531 C 564.859375 213.292969 567.652344 213.269531 570.175781 212.195312 C 575.386719 209.980469 577.828125 203.9375 575.613281 198.722656 C 574.535156 196.199219 572.542969 194.238281 570.003906 193.210938 C 568.757812 192.707031 567.457031 192.457031 566.15625 192.457031 Z M 566.164062 215.660156 C 564.523438 215.660156 562.890625 215.347656 561.324219 214.71875 C 558.132812 213.429688 555.628906 210.96875 554.277344 207.789062 C 551.492188 201.238281 554.558594 193.640625 561.109375 190.855469 C 564.28125 189.5 567.792969 189.472656 570.992188 190.765625 C 574.1875 192.050781 576.695312 194.511719 578.042969 197.683594 C 580.824219 204.242188 577.761719 211.839844 571.203125 214.628906 C 569.582031 215.320312 567.871094 215.660156 566.164062 215.660156 Z M 562.304688 224.410156 L 564.675781 224.703125 L 565.976562 221.074219 C 566.15625 220.570312 566.613281 220.226562 567.144531 220.195312 C 568.097656 220.144531 569.070312 220.007812 570.027344 219.785156 C 570.550781 219.671875 571.085938 219.871094 571.402344 220.300781 L 573.652344 223.4375 L 575.851562 222.5 L 575.160156 218.703125 C 575.0625 218.179688 575.292969 217.652344 575.734375 217.359375 C 576.5625 216.816406 577.335938 216.21875 578.035156 215.5625 C 578.429688 215.203125 578.996094 215.113281 579.480469 215.332031 L 582.992188 216.917969 L 584.433594 215.003906 L 581.933594 212.054688 C 581.589844 211.65625 581.519531 211.082031 581.757812 210.605469 C 582.191406 209.746094 582.558594 208.832031 582.84375 207.90625 C 583.003906 207.398438 583.445312 207.035156 583.976562 206.984375 L 587.820312 206.597656 L 588.113281 204.222656 L 584.484375 202.921875 C 583.980469 202.742188 583.640625 202.28125 583.605469 201.753906 C 583.554688 200.796875 583.414062 199.828125 583.195312 198.867188 C 583.078125 198.347656 583.28125 197.8125 583.710938 197.5 L 586.847656 195.246094 L 585.910156 193.039062 L 582.113281 193.730469 C 581.585938 193.828125 581.058594 193.601562 580.769531 193.15625 C 580.230469 192.332031 579.625 191.554688 578.980469 190.855469 C 578.617188 190.46875 578.523438 189.902344 578.746094 189.414062 L 580.328125 185.898438 L 578.417969 184.457031 L 575.472656 186.960938 C 575.070312 187.304688 574.5 187.371094 574.027344 187.136719 C 573.15625 186.695312 572.25 186.328125 571.328125 186.042969 C 570.816406 185.886719 570.453125 185.441406 570.398438 184.914062 L 570.011719 181.066406 L 567.640625 180.773438 L 566.339844 184.410156 C 566.164062 184.910156 565.703125 185.257812 565.175781 185.285156 C 564.21875 185.335938 563.246094 185.476562 562.289062 185.695312 C 561.773438 185.8125 561.230469 185.613281 560.925781 185.179688 L 558.664062 182.042969 L 556.464844 182.980469 L 557.15625 186.78125 C 557.25 187.300781 557.023438 187.832031 556.578125 188.125 C 555.761719 188.660156 554.984375 189.257812 554.277344 189.914062 C 553.894531 190.273438 553.328125 190.367188 552.839844 190.148438 L 549.328125 188.5625 L 547.890625 190.480469 L 550.382812 193.425781 C 550.730469 193.828125 550.796875 194.398438 550.558594 194.871094 C 550.125 195.734375 549.757812 196.648438 549.46875 197.578125 C 549.3125 198.082031 548.867188 198.441406 548.339844 198.5 L 544.496094 198.882812 L 544.203125 201.261719 L 547.835938 202.558594 C 548.332031 202.738281 548.679688 203.199219 548.710938 203.726562 C 548.757812 204.683594 548.902344 205.65625 549.121094 206.613281 C 549.242188 207.132812 549.035156 207.671875 548.605469 207.980469 L 545.472656 210.238281 L 546.402344 212.441406 L 550.207031 211.746094 C 550.730469 211.652344 551.257812 211.878906 551.546875 212.324219 C 552.089844 213.152344 552.691406 213.925781 553.339844 214.628906 C 553.699219 215.015625 553.792969 215.578125 553.578125 216.066406 L 551.988281 219.585938 L 553.902344 221.023438 L 556.84375 218.519531 C 557.25 218.175781 557.824219 218.109375 558.292969 218.347656 C 559.160156 218.789062 560.074219 219.152344 560.996094 219.4375 C 561.5 219.59375 561.867188 220.039062 561.917969 220.566406 Z M 565.566406 227.464844 C 565.511719 227.464844 565.460938 227.457031 565.40625 227.453125 L 560.941406 226.90625 C 560.324219 226.832031 559.84375 226.339844 559.78125 225.730469 L 559.375 221.679688 C 558.878906 221.503906 558.386719 221.304688 557.902344 221.089844 L 554.804688 223.71875 C 554.328125 224.117188 553.648438 224.136719 553.15625 223.765625 L 549.558594 221.058594 C 549.066406 220.6875 548.898438 220.019531 549.152344 219.457031 L 550.816406 215.761719 C 550.480469 215.355469 550.148438 214.933594 549.839844 214.496094 L 545.84375 215.222656 C 545.242188 215.332031 544.628906 215.015625 544.390625 214.441406 L 542.628906 210.296875 C 542.390625 209.730469 542.574219 209.074219 543.078125 208.707031 L 546.371094 206.335938 C 546.273438 205.8125 546.199219 205.285156 546.144531 204.757812 L 542.324219 203.390625 C 541.742188 203.179688 541.382812 202.597656 541.457031 201.984375 L 542.003906 197.515625 C 542.078125 196.90625 542.570312 196.421875 543.179688 196.363281 L 547.226562 195.957031 C 547.40625 195.457031 547.601562 194.964844 547.824219 194.484375 L 545.191406 191.378906 C 544.796875 190.910156 544.777344 190.222656 545.144531 189.730469 L 547.851562 186.132812 C 548.21875 185.640625 548.886719 185.464844 549.445312 185.722656 L 553.152344 187.390625 C 553.550781 187.050781 553.972656 186.722656 554.410156 186.414062 L 553.675781 182.414062 C 553.566406 181.808594 553.894531 181.199219 554.460938 180.960938 L 558.605469 179.199219 C 559.175781 178.960938 559.832031 179.144531 560.1875 179.640625 L 562.566406 182.945312 C 563.089844 182.84375 563.617188 182.769531 564.144531 182.71875 L 565.507812 178.894531 C 565.714844 178.3125 566.296875 177.957031 566.914062 178.027344 L 571.378906 178.574219 C 571.992188 178.648438 572.472656 179.140625 572.53125 179.753906 L 572.941406 183.800781 C 573.4375 183.976562 573.933594 184.179688 574.417969 184.394531 L 577.511719 181.761719 C 577.988281 181.359375 578.667969 181.34375 579.160156 181.71875 L 582.757812 184.425781 C 583.25 184.792969 583.425781 185.460938 583.167969 186.023438 L 581.5 189.722656 C 581.839844 190.128906 582.167969 190.546875 582.476562 190.980469 L 586.476562 190.253906 C 587.078125 190.144531 587.6875 190.46875 587.933594 191.039062 L 589.691406 195.183594 C 589.925781 195.75 589.746094 196.40625 589.242188 196.769531 L 585.945312 199.144531 C 586.046875 199.671875 586.117188 200.199219 586.171875 200.722656 L 589.996094 202.089844 C 590.578125 202.296875 590.933594 202.882812 590.859375 203.496094 L 590.3125 207.964844 C 590.238281 208.578125 589.746094 209.054688 589.132812 209.121094 L 585.089844 209.523438 C 584.914062 210.027344 584.714844 210.515625 584.492188 211.003906 L 587.125 214.101562 C 587.527344 214.570312 587.542969 215.257812 587.175781 215.75 L 584.46875 219.347656 C 584.097656 219.839844 583.429688 220.011719 582.863281 219.761719 L 579.171875 218.089844 C 578.765625 218.429688 578.347656 218.757812 577.914062 219.070312 L 578.636719 223.066406 C 578.75 223.675781 578.421875 224.277344 577.855469 224.515625 L 573.714844 226.28125 C 573.140625 226.519531 572.484375 226.335938 572.128906 225.835938 L 569.757812 222.539062 C 569.230469 222.636719 568.699219 222.710938 568.171875 222.761719 L 566.808594 226.585938 C 566.621094 227.117188 566.117188 227.464844 565.566406 227.464844 " fill-opacity="1" fill-rule="nonzero"/><path fill="#8c52ff" d="M 475.867188 323.816406 C 454.085938 333.085938 428.917969 322.925781 419.660156 301.132812 C 410.398438 279.335938 420.554688 254.15625 442.339844 244.890625 C 464.125 235.628906 489.292969 245.785156 498.550781 267.582031 C 507.808594 289.378906 497.65625 314.554688 475.867188 323.816406 Z M 541.625 258.316406 L 535.109375 242.984375 L 517.226562 246.242188 C 515.078125 242.964844 512.699219 239.902344 510.089844 237.085938 L 517.554688 220.523438 L 504.25 210.5 L 490.386719 222.277344 C 486.929688 220.535156 483.335938 219.085938 479.644531 217.941406 L 477.824219 199.835938 L 461.296875 197.8125 L 455.179688 214.917969 C 451.355469 215.136719 447.511719 215.683594 443.699219 216.5625 L 433.070312 201.792969 L 417.753906 208.3125 L 421.007812 226.210938 C 417.730469 228.351562 414.667969 230.734375 411.855469 233.339844 L 395.300781 225.878906 L 385.285156 239.183594 L 397.054688 253.058594 C 395.316406 256.515625 393.863281 260.109375 392.71875 263.808594 L 374.621094 265.628906 L 372.601562 282.160156 L 389.703125 288.285156 C 389.917969 292.109375 390.464844 295.953125 391.339844 299.773438 L 376.582031 310.398438 L 383.09375 325.730469 L 400.984375 322.46875 C 403.125 325.75 405.507812 328.8125 408.109375 331.625 L 400.652344 348.191406 L 413.949219 358.210938 L 427.824219 346.4375 C 431.277344 348.175781 434.867188 349.625 438.566406 350.777344 L 440.386719 368.878906 L 456.910156 370.902344 L 463.03125 353.792969 C 466.855469 353.578125 470.695312 353.023438 474.511719 352.15625 L 485.128906 366.917969 L 500.457031 360.40625 L 497.199219 342.503906 C 500.476562 340.363281 503.539062 337.976562 506.34375 335.371094 L 522.90625 342.839844 L 532.917969 329.53125 L 521.152344 315.65625 C 522.894531 312.199219 524.339844 308.605469 525.484375 304.90625 L 543.585938 303.085938 L 545.605469 286.554688 L 528.503906 280.429688 C 528.289062 276.601562 527.734375 272.761719 526.863281 268.941406 L 541.625 258.316406 " fill-opacity="1" fill-rule="nonzero"/><path fill="#000000" d="M 451.503906 239.707031 C 445.992188 239.707031 440.480469 240.816406 435.257812 243.039062 C 414.175781 252.007812 404.316406 276.457031 413.277344 297.550781 C 417.617188 307.761719 425.675781 315.679688 435.96875 319.832031 C 446.253906 323.984375 457.542969 323.882812 467.753906 319.539062 C 488.839844 310.574219 498.699219 286.125 489.738281 265.03125 C 485.402344 254.820312 477.339844 246.902344 467.046875 242.75 C 462.027344 240.71875 456.765625 239.707031 451.503906 239.707031 Z M 451.511719 325.515625 C 445.917969 325.515625 440.320312 324.4375 434.972656 322.28125 C 424.03125 317.863281 415.464844 309.445312 410.847656 298.582031 C 401.316406 276.148438 411.808594 250.144531 434.226562 240.609375 C 445.085938 235.992188 457.09375 235.882812 468.042969 240.300781 C 478.984375 244.71875 487.550781 253.136719 492.167969 264 C 501.699219 286.429688 491.207031 312.433594 468.789062 321.972656 C 463.230469 324.332031 457.378906 325.515625 451.511719 325.515625 Z M 433.996094 364.632812 L 448.425781 366.398438 L 454.1875 350.28125 C 454.371094 349.785156 454.832031 349.441406 455.355469 349.40625 C 459.085938 349.199219 462.871094 348.660156 466.621094 347.796875 C 467.128906 347.679688 467.671875 347.882812 467.988281 348.3125 L 477.988281 362.226562 L 491.371094 356.539062 L 488.300781 339.675781 C 488.207031 339.152344 488.433594 338.625 488.882812 338.335938 C 492.105469 336.226562 495.117188 333.875 497.855469 331.339844 C 498.242188 330.976562 498.8125 330.882812 499.292969 331.101562 L 514.886719 338.136719 L 523.628906 326.515625 L 512.546875 313.441406 C 512.207031 313.039062 512.136719 312.46875 512.378906 311.996094 C 514.082031 308.613281 515.511719 305.0625 516.632812 301.449219 C 516.785156 300.941406 517.234375 300.578125 517.757812 300.527344 L 534.804688 298.8125 L 536.574219 284.375 L 520.464844 278.605469 C 519.964844 278.429688 519.621094 277.964844 519.59375 277.441406 C 519.382812 273.707031 518.839844 269.914062 517.984375 266.167969 C 517.867188 265.652344 518.070312 265.113281 518.496094 264.800781 L 532.40625 254.792969 L 526.71875 241.410156 L 509.867188 244.476562 C 509.339844 244.574219 508.8125 244.34375 508.523438 243.894531 C 506.417969 240.679688 504.066406 237.65625 501.527344 234.921875 C 501.167969 234.527344 501.078125 233.960938 501.292969 233.480469 L 508.328125 217.875 L 496.707031 209.128906 L 483.644531 220.21875 C 483.242188 220.5625 482.664062 220.625 482.191406 220.390625 C 478.820312 218.6875 475.269531 217.257812 471.65625 216.136719 C 471.148438 215.976562 470.785156 215.535156 470.730469 215.003906 L 469.019531 197.949219 L 454.589844 196.183594 L 448.828125 212.300781 C 448.648438 212.796875 448.1875 213.140625 447.65625 213.167969 C 443.929688 213.382812 440.136719 213.921875 436.390625 214.777344 C 435.878906 214.898438 435.335938 214.695312 435.027344 214.265625 L 425.027344 200.355469 L 411.644531 206.042969 L 414.710938 222.90625 C 414.804688 223.429688 414.582031 223.957031 414.132812 224.246094 C 410.914062 226.351562 407.894531 228.707031 405.160156 231.242188 C 404.773438 231.605469 404.199219 231.699219 403.71875 231.480469 L 388.121094 224.445312 L 379.382812 236.066406 L 390.46875 249.140625 C 390.808594 249.542969 390.875 250.113281 390.640625 250.585938 C 388.933594 253.96875 387.5 257.519531 386.382812 261.132812 C 386.230469 261.640625 385.78125 262.003906 385.253906 262.054688 L 368.210938 263.769531 L 366.441406 278.207031 L 382.550781 283.972656 C 383.046875 284.152344 383.394531 284.609375 383.421875 285.140625 C 383.632812 288.867188 384.175781 292.660156 385.03125 296.414062 C 385.148438 296.929688 384.949219 297.46875 384.515625 297.78125 L 370.613281 307.789062 L 376.300781 321.171875 L 393.148438 318.105469 C 393.675781 318.007812 394.203125 318.238281 394.492188 318.679688 C 396.597656 321.902344 398.953125 324.921875 401.484375 327.660156 C 401.847656 328.046875 401.9375 328.621094 401.722656 329.101562 L 394.691406 344.707031 L 406.304688 353.453125 L 419.375 342.363281 C 419.773438 342.019531 420.347656 341.957031 420.816406 342.191406 C 424.195312 343.894531 427.746094 345.324219 431.359375 346.445312 C 431.867188 346.605469 432.230469 347.050781 432.277344 347.578125 Z M 449.316406 369.15625 C 449.257812 369.15625 449.210938 369.148438 449.152344 369.144531 L 432.628906 367.125 C 432.011719 367.046875 431.535156 366.558594 431.472656 365.945312 L 429.742188 348.703125 C 426.554688 347.671875 423.421875 346.40625 420.417969 344.941406 L 407.207031 356.148438 C 406.742188 356.550781 406.050781 356.566406 405.5625 356.195312 L 392.261719 346.179688 C 391.765625 345.804688 391.597656 345.148438 391.851562 344.582031 L 398.957031 328.8125 C 396.738281 326.347656 394.660156 323.679688 392.769531 320.859375 L 375.730469 323.960938 C 375.121094 324.070312 374.523438 323.746094 374.28125 323.179688 L 367.769531 307.847656 C 367.527344 307.28125 367.710938 306.621094 368.210938 306.257812 L 382.265625 296.140625 C 381.550781 292.824219 381.074219 289.472656 380.84375 286.167969 L 364.558594 280.335938 C 363.980469 280.132812 363.621094 279.542969 363.695312 278.933594 L 365.71875 262.402344 C 365.789062 261.789062 366.277344 261.308594 366.894531 261.246094 L 384.125 259.515625 C 385.15625 256.328125 386.417969 253.195312 387.890625 250.1875 L 376.683594 236.972656 C 376.285156 236.5 376.265625 235.816406 376.636719 235.324219 L 386.648438 222.011719 C 387.019531 221.519531 387.683594 221.351562 388.246094 221.605469 L 404.011719 228.714844 C 406.46875 226.492188 409.140625 224.417969 411.960938 222.523438 L 408.855469 205.480469 C 408.742188 204.875 409.070312 204.269531 409.640625 204.027344 L 424.960938 197.511719 C 425.53125 197.273438 426.191406 197.453125 426.550781 197.953125 L 436.660156 212.015625 C 439.980469 211.300781 443.324219 210.820312 446.632812 210.59375 L 452.457031 194.300781 C 452.664062 193.71875 453.25 193.367188 453.863281 193.4375 L 470.386719 195.457031 C 471 195.53125 471.476562 196.023438 471.535156 196.636719 L 473.273438 213.878906 C 476.460938 214.910156 479.59375 216.175781 482.597656 217.640625 L 495.800781 206.433594 C 496.277344 206.03125 496.960938 206.007812 497.453125 206.382812 L 510.75 216.402344 C 511.25 216.773438 511.414062 217.433594 511.164062 218 L 504.058594 233.769531 C 506.28125 236.234375 508.355469 238.898438 510.25 241.722656 L 527.285156 238.617188 C 527.878906 238.507812 528.496094 238.835938 528.730469 239.402344 L 535.242188 254.730469 C 535.488281 255.300781 535.304688 255.960938 534.804688 256.320312 L 520.75 266.4375 C 521.460938 269.753906 521.9375 273.101562 522.171875 276.410156 L 538.457031 282.246094 C 539.039062 282.449219 539.398438 283.03125 539.320312 283.644531 L 537.296875 300.179688 C 537.222656 300.792969 536.734375 301.273438 536.117188 301.332031 L 518.890625 303.066406 C 517.859375 306.253906 516.59375 309.386719 515.121094 312.394531 L 526.332031 325.609375 C 526.730469 326.082031 526.75 326.765625 526.378906 327.257812 L 516.367188 340.5625 C 515.992188 341.054688 515.328125 341.226562 514.769531 340.972656 L 499.003906 333.867188 C 496.542969 336.085938 493.878906 338.164062 491.054688 340.058594 L 494.160156 357.101562 C 494.273438 357.707031 493.941406 358.3125 493.378906 358.554688 L 478.054688 365.070312 C 477.488281 365.308594 476.824219 365.125 476.464844 364.628906 L 466.355469 350.5625 C 463.035156 351.28125 459.691406 351.757812 456.378906 351.988281 L 450.558594 368.28125 C 450.367188 368.8125 449.867188 369.15625 449.316406 369.15625 " fill-opacity="1" fill-rule="nonzero"/></svg>